<?plantuml 1.2026.1?><svg xmlns="http://www.w3.org/2000/svg" xmlns:xlink="http://www.w3.org/1999/xlink" contentStyleType="text/css" data-diagram-type="CLASS" height="891px" preserveAspectRatio="none" style="width:2695px;height:891px;background:#FFFFFF;" version="1.1" viewBox="0 0 2695 891" width="2695px" zoomAndPan="magnify"><defs/><g><!--cluster domain--><g class="cluster" data-qualified-name="domain" data-source-line="6" id="ent0004"><rect fill="none" height="305" rx="2.5" ry="2.5" style="stroke:#000000;stroke-width:1.5;" width="247" x="1369.5" y="551"/><text fill="#000000" font-family="sans-serif" font-size="14" font-weight="bold" lengthAdjust="spacing" textLength="49.7793" x="1468.1104" y="567.5332">domain</text></g><!--cluster model--><g class="cluster" data-qualified-name="domain.model" data-source-line="5" id="ent0002"><rect fill="none" height="237" rx="2.5" ry="2.5" style="stroke:#000000;stroke-width:1.5;" width="199" x="1393.5" y="595"/><text fill="#000000" font-family="sans-serif" font-size="14" font-weight="bold" lengthAdjust="spacing" textLength="41.2275" x="1472.3862" y="611.5332">model</text></g><!--cluster ui--><g class="cluster" data-qualified-name="ui" data-source-line="15" id="ent0010"><rect fill="none" height="179" rx="2.5" ry="2.5" style="stroke:#000000;stroke-width:1.5;" width="1691" x="784.5" y="7"/><text fill="#000000" font-family="sans-serif" font-size="14" font-weight="bold" lengthAdjust="spacing" textLength="12.4414" x="1623.7793" y="23.5332">ui</text></g><!--cluster viewmodel--><g class="cluster" data-qualified-name="ui.viewmodel" data-source-line="14" id="ent0008"><rect fill="none" height="111" rx="2.5" ry="2.5" style="stroke:#000000;stroke-width:1.5;" width="1643" x="808.5" y="51"/><text fill="#000000" font-family="sans-serif" font-size="14" font-weight="bold" lengthAdjust="spacing" textLength="71.5791" x="1594.2104" y="67.5332">viewmodel</text></g><!--cluster data--><g class="cluster" data-qualified-name="data" data-source-line="30" id="ent0021"><rect fill="none" height="666.5" rx="2.5" ry="2.5" style="stroke:#000000;stroke-width:1.5;" width="1211" x="134.5" y="219"/><text fill="#000000" font-family="sans-serif" font-size="14" font-weight="bold" lengthAdjust="spacing" textLength="28.7861" x="725.6069" y="235.5332">data</text></g><!--cluster repository--><g class="cluster" data-qualified-name="data.repository" data-source-line="29" id="ent0019"><rect fill="none" height="100" rx="2.5" ry="2.5" style="stroke:#000000;stroke-width:1.5;" width="331" x="744.5" y="268.5"/><text fill="#000000" font-family="sans-serif" font-size="14" font-weight="bold" lengthAdjust="spacing" textLength="68.4619" x="875.769" y="285.0332">repository</text></g><!--cluster api--><g class="cluster" data-qualified-name="data.api" data-source-line="35" id="ent0023"><rect fill="none" height="100" rx="2.5" ry="2.5" style="stroke:#000000;stroke-width:1.5;" width="239" x="684.5" y="412.5"/><text fill="#000000" font-family="sans-serif" font-size="14" font-weight="bold" lengthAdjust="spacing" textLength="20.2275" x="793.8862" y="429.0332">api</text></g><!--cluster database--><g class="cluster" data-qualified-name="data.database" data-source-line="41" id="ent0026"><rect fill="none" height="598.5" rx="2.5" ry="2.5" style="stroke:#000000;stroke-width:1.5;" width="328" x="158.5" y="263"/><text fill="#000000" font-family="sans-serif" font-size="14" font-weight="bold" lengthAdjust="spacing" textLength="60.6963" x="292.1519" y="279.5332">database</text></g><!--cluster dao--><g class="cluster" data-qualified-name="data.database.dao" data-source-line="45" id="ent0028"><rect fill="none" height="111" rx="2.5" ry="2.5" style="stroke:#000000;stroke-width:1.5;" width="280" x="182.5" y="407"/><text fill="#000000" font-family="sans-serif" font-size="14" font-weight="bold" lengthAdjust="spacing" textLength="24.8896" x="310.0552" y="423.5332">dao</text></g><!--cluster entity--><g class="cluster" data-qualified-name="data.database.entity" data-source-line="50" id="ent0031"><rect fill="none" height="248" rx="2.5" ry="2.5" style="stroke:#000000;stroke-width:1.5;" width="158" x="267.5" y="589.5"/><text fill="#000000" font-family="sans-serif" font-size="14" font-weight="bold" lengthAdjust="spacing" textLength="37.3379" x="327.8311" y="606.0332">entity</text></g><!--cluster local--><g class="cluster" data-qualified-name="data.local" data-source-line="56" id="ent0035"><rect fill="none" height="111" rx="2.5" ry="2.5" style="stroke:#000000;stroke-width:1.5;" width="374" x="947.5" y="407"/><text fill="#000000" font-family="sans-serif" font-size="14" font-weight="bold" lengthAdjust="spacing" textLength="31.9033" x="1118.5483" y="423.5332">local</text></g><!--cluster mapper--><g class="cluster" data-qualified-name="data.mapper" data-source-line="61" id="ent0038"><rect fill="none" height="111" rx="2.5" ry="2.5" style="stroke:#000000;stroke-width:1.5;" width="150" x="510.5" y="407"/><text fill="#000000" font-family="sans-serif" font-size="14" font-weight="bold" lengthAdjust="spacing" textLength="50.5723" x="560.2139" y="423.5332">mapper</text></g><!--cluster auth--><g class="cluster" data-qualified-name="data.auth" data-source-line="65" id="ent0040"><rect fill="none" height="100" rx="2.5" ry="2.5" style="stroke:#000000;stroke-width:1.5;" width="196" x="1099.5" y="268.5"/><text fill="#000000" font-family="sans-serif" font-size="14" font-weight="bold" lengthAdjust="spacing" textLength="29.5518" x="1182.7241" y="285.0332">auth</text></g><!--cluster util--><g class="cluster" data-qualified-name="util" data-source-line="70" id="ent0042"><rect fill="none" height="111" rx="2.5" ry="2.5" style="stroke:#000000;stroke-width:1.5;" width="768" x="1369.5" y="263"/><text fill="#000000" font-family="sans-serif" font-size="14" font-weight="bold" lengthAdjust="spacing" textLength="20.9932" x="1743.0034" y="279.5332">util</text></g><!--cluster service--><g class="cluster" data-qualified-name="service" data-source-line="78" id="ent0048"><rect fill="none" height="100" rx="2.5" ry="2.5" style="stroke:#000000;stroke-width:1.5;" width="190" x="2499.5" y="56.5"/><text fill="#000000" font-family="sans-serif" font-size="14" font-weight="bold" lengthAdjust="spacing" textLength="48.2686" x="2570.3657" y="73.0332">service</text></g><!--class Route--><g class="entity" data-qualified-name="domain.model.Route" data-source-line="6" id="ent0003"><rect fill="#F1F1F1" height="48" rx="2.5" ry="2.5" style="stroke:#181818;stroke-width:0.5;" width="69.3584" x="1507" y="631"/><ellipse cx="1522" cy="647" fill="#ADD1B2" rx="11" ry="11" style="stroke:#181818;stroke-width:1;"/><path d="M1524.7656,642.875 Q1524.9219,642.6563 1525.1094,642.5469 Q1525.2969,642.4375 1525.5156,642.4375 Q1525.8906,642.4375 1526.125,642.7031 Q1526.3594,642.9531 1526.3594,643.5625 L1526.3594,645.0156 Q1526.3594,645.625 1526.125,645.8906 Q1525.8906,646.1563 1525.5156,646.1563 Q1525.1719,646.1563 1524.9688,645.9531 Q1524.7656,645.7656 1524.6563,645.25 Q1524.6094,644.8906 1524.4219,644.7031 Q1524.0938,644.3281 1523.4844,644.1094 Q1522.875,643.8906 1522.25,643.8906 Q1521.4844,643.8906 1520.8438,644.2188 Q1520.2188,644.5469 1519.7188,645.2969 Q1519.2344,646.0469 1519.2344,647.0781 L1519.2344,648.1719 Q1519.2344,649.4063 1520.125,650.2344 Q1521.0156,651.0469 1522.6094,651.0469 Q1523.5469,651.0469 1524.2031,650.7969 Q1524.5938,650.6406 1525.0156,650.2031 Q1525.2813,649.9375 1525.4219,649.8594 Q1525.5781,649.7813 1525.7813,649.7813 Q1526.1094,649.7813 1526.3594,650.0469 Q1526.625,650.2969 1526.625,650.6406 Q1526.625,650.9844 1526.2813,651.3906 Q1525.7813,651.9688 1524.9844,652.2969 Q1523.9063,652.75 1522.6094,652.75 Q1521.0938,652.75 1519.8906,652.125 Q1518.9063,651.625 1518.2188,650.5625 Q1517.5313,649.4844 1517.5313,648.2031 L1517.5313,647.0469 Q1517.5313,645.7188 1518.1406,644.5781 Q1518.7656,643.4219 1519.8594,642.8125 Q1520.9531,642.1875 1522.1875,642.1875 Q1522.9219,642.1875 1523.5625,642.3594 Q1524.2188,642.5156 1524.7656,642.875 Z " fill="#000000"/><text fill="#000000" font-family="sans-serif" font-size="14" lengthAdjust="spacing" textLength="37.3584" x="1536" y="652.7285">Route</text><line style="stroke:#181818;stroke-width:0.5;" x1="1508" x2="1575.3584" y1="663" y2="663"/><line style="stroke:#181818;stroke-width:0.5;" x1="1508" x2="1575.3584" y1="671" y2="671"/></g><!--class Attraction--><g class="entity" data-qualified-name="domain.model.Attraction" data-source-line="7" id="ent0005"><rect fill="#F1F1F1" height="48" rx="2.5" ry="2.5" style="stroke:#181818;stroke-width:0.5;" width="91.1377" x="1477" y="768"/><ellipse cx="1492" cy="784" fill="#ADD1B2" rx="11" ry="11" style="stroke:#181818;stroke-width:1;"/><path d="M1494.7656,779.875 Q1494.9219,779.6563 1495.1094,779.5469 Q1495.2969,779.4375 1495.5156,779.4375 Q1495.8906,779.4375 1496.125,779.7031 Q1496.3594,779.9531 1496.3594,780.5625 L1496.3594,782.0156 Q1496.3594,782.625 1496.125,782.8906 Q1495.8906,783.1563 1495.5156,783.1563 Q1495.1719,783.1563 1494.9688,782.9531 Q1494.7656,782.7656 1494.6563,782.25 Q1494.6094,781.8906 1494.4219,781.7031 Q1494.0938,781.3281 1493.4844,781.1094 Q1492.875,780.8906 1492.25,780.8906 Q1491.4844,780.8906 1490.8438,781.2188 Q1490.2188,781.5469 1489.7188,782.2969 Q1489.2344,783.0469 1489.2344,784.0781 L1489.2344,785.1719 Q1489.2344,786.4063 1490.125,787.2344 Q1491.0156,788.0469 1492.6094,788.0469 Q1493.5469,788.0469 1494.2031,787.7969 Q1494.5938,787.6406 1495.0156,787.2031 Q1495.2813,786.9375 1495.4219,786.8594 Q1495.5781,786.7813 1495.7813,786.7813 Q1496.1094,786.7813 1496.3594,787.0469 Q1496.625,787.2969 1496.625,787.6406 Q1496.625,787.9844 1496.2813,788.3906 Q1495.7813,788.9688 1494.9844,789.2969 Q1493.9063,789.75 1492.6094,789.75 Q1491.0938,789.75 1489.8906,789.125 Q1488.9063,788.625 1488.2188,787.5625 Q1487.5313,786.4844 1487.5313,785.2031 L1487.5313,784.0469 Q1487.5313,782.7188 1488.1406,781.5781 Q1488.7656,780.4219 1489.8594,779.8125 Q1490.9531,779.1875 1492.1875,779.1875 Q1492.9219,779.1875 1493.5625,779.3594 Q1494.2188,779.5156 1494.7656,779.875 Z " fill="#000000"/><text fill="#000000" font-family="sans-serif" font-size="14" lengthAdjust="spacing" textLength="59.1377" x="1506" y="789.7285">Attraction</text><line style="stroke:#181818;stroke-width:0.5;" x1="1478" x2="1567.1377" y1="800" y2="800"/><line style="stroke:#181818;stroke-width:0.5;" x1="1478" x2="1567.1377" y1="808" y2="808"/></g><!--class User--><g class="entity" data-qualified-name="domain.model.User" data-source-line="8" id="ent0006"><rect fill="#F1F1F1" height="48" rx="2.5" ry="2.5" style="stroke:#181818;stroke-width:0.5;" width="61.5586" x="1409.5" y="631"/><ellipse cx="1424.5" cy="647" fill="#ADD1B2" rx="11" ry="11" style="stroke:#181818;stroke-width:1;"/><path d="M1427.2656,642.875 Q1427.4219,642.6563 1427.6094,642.5469 Q1427.7969,642.4375 1428.0156,642.4375 Q1428.3906,642.4375 1428.625,642.7031 Q1428.8594,642.9531 1428.8594,643.5625 L1428.8594,645.0156 Q1428.8594,645.625 1428.625,645.8906 Q1428.3906,646.1563 1428.0156,646.1563 Q1427.6719,646.1563 1427.4688,645.9531 Q1427.2656,645.7656 1427.1563,645.25 Q1427.1094,644.8906 1426.9219,644.7031 Q1426.5938,644.3281 1425.9844,644.1094 Q1425.375,643.8906 1424.75,643.8906 Q1423.9844,643.8906 1423.3438,644.2188 Q1422.7188,644.5469 1422.2188,645.2969 Q1421.7344,646.0469 1421.7344,647.0781 L1421.7344,648.1719 Q1421.7344,649.4063 1422.625,650.2344 Q1423.5156,651.0469 1425.1094,651.0469 Q1426.0469,651.0469 1426.7031,650.7969 Q1427.0938,650.6406 1427.5156,650.2031 Q1427.7813,649.9375 1427.9219,649.8594 Q1428.0781,649.7813 1428.2813,649.7813 Q1428.6094,649.7813 1428.8594,650.0469 Q1429.125,650.2969 1429.125,650.6406 Q1429.125,650.9844 1428.7813,651.3906 Q1428.2813,651.9688 1427.4844,652.2969 Q1426.4063,652.75 1425.1094,652.75 Q1423.5938,652.75 1422.3906,652.125 Q1421.4063,651.625 1420.7188,650.5625 Q1420.0313,649.4844 1420.0313,648.2031 L1420.0313,647.0469 Q1420.0313,645.7188 1420.6406,644.5781 Q1421.2656,643.4219 1422.3594,642.8125 Q1423.4531,642.1875 1424.6875,642.1875 Q1425.4219,642.1875 1426.0625,642.3594 Q1426.7188,642.5156 1427.2656,642.875 Z " fill="#000000"/><text fill="#000000" font-family="sans-serif" font-size="14" lengthAdjust="spacing" textLength="29.5586" x="1438.5" y="652.7285">User</text><line style="stroke:#181818;stroke-width:0.5;" x1="1410.5" x2="1470.0586" y1="663" y2="663"/><line style="stroke:#181818;stroke-width:0.5;" x1="1410.5" x2="1470.0586" y1="671" y2="671"/></g><!--class MapViewModel--><g class="entity" data-qualified-name="ui.viewmodel.MapViewModel" data-source-line="15" id="ent0009"><rect fill="#F1F1F1" height="48" rx="2.5" ry="2.5" style="stroke:#181818;stroke-width:0.5;" width="127.71" x="1525.5" y="92.5"/><ellipse cx="1540.5" cy="108.5" fill="#ADD1B2" rx="11" ry="11" style="stroke:#181818;stroke-width:1;"/><path d="M1543.2656,104.375 Q1543.4219,104.1563 1543.6094,104.0469 Q1543.7969,103.9375 1544.0156,103.9375 Q1544.3906,103.9375 1544.625,104.2031 Q1544.8594,104.4531 1544.8594,105.0625 L1544.8594,106.5156 Q1544.8594,107.125 1544.625,107.3906 Q1544.3906,107.6563 1544.0156,107.6563 Q1543.6719,107.6563 1543.4688,107.4531 Q1543.2656,107.2656 1543.1563,106.75 Q1543.1094,106.3906 1542.9219,106.2031 Q1542.5938,105.8281 1541.9844,105.6094 Q1541.375,105.3906 1540.75,105.3906 Q1539.9844,105.3906 1539.3438,105.7188 Q1538.7188,106.0469 1538.2188,106.7969 Q1537.7344,107.5469 1537.7344,108.5781 L1537.7344,109.6719 Q1537.7344,110.9063 1538.625,111.7344 Q1539.5156,112.5469 1541.1094,112.5469 Q1542.0469,112.5469 1542.7031,112.2969 Q1543.0938,112.1406 1543.5156,111.7031 Q1543.7813,111.4375 1543.9219,111.3594 Q1544.0781,111.2813 1544.2813,111.2813 Q1544.6094,111.2813 1544.8594,111.5469 Q1545.125,111.7969 1545.125,112.1406 Q1545.125,112.4844 1544.7813,112.8906 Q1544.2813,113.4688 1543.4844,113.7969 Q1542.4063,114.25 1541.1094,114.25 Q1539.5938,114.25 1538.3906,113.625 Q1537.4063,113.125 1536.7188,112.0625 Q1536.0313,110.9844 1536.0313,109.7031 L1536.0313,108.5469 Q1536.0313,107.2188 1536.6406,106.0781 Q1537.2656,104.9219 1538.3594,104.3125 Q1539.4531,103.6875 1540.6875,103.6875 Q1541.4219,103.6875 1542.0625,103.8594 Q1542.7188,104.0156 1543.2656,104.375 Z " fill="#000000"/><text fill="#000000" font-family="sans-serif" font-size="14" lengthAdjust="spacing" textLength="95.71" x="1554.5" y="114.2285">MapViewModel</text><line style="stroke:#181818;stroke-width:0.5;" x1="1526.5" x2="1652.21" y1="124.5" y2="124.5"/><line style="stroke:#181818;stroke-width:0.5;" x1="1526.5" x2="1652.21" y1="132.5" y2="132.5"/></g><!--class RoutesViewModel--><g class="entity" data-qualified-name="ui.viewmodel.RoutesViewModel" data-source-line="16" id="ent0011"><rect fill="#F1F1F1" height="48" rx="2.5" ry="2.5" style="stroke:#181818;stroke-width:0.5;" width="144.834" x="1181" y="92.5"/><ellipse cx="1196" cy="108.5" fill="#ADD1B2" rx="11" ry="11" style="stroke:#181818;stroke-width:1;"/><path d="M1198.7656,104.375 Q1198.9219,104.1563 1199.1094,104.0469 Q1199.2969,103.9375 1199.5156,103.9375 Q1199.8906,103.9375 1200.125,104.2031 Q1200.3594,104.4531 1200.3594,105.0625 L1200.3594,106.5156 Q1200.3594,107.125 1200.125,107.3906 Q1199.8906,107.6563 1199.5156,107.6563 Q1199.1719,107.6563 1198.9688,107.4531 Q1198.7656,107.2656 1198.6563,106.75 Q1198.6094,106.3906 1198.4219,106.2031 Q1198.0938,105.8281 1197.4844,105.6094 Q1196.875,105.3906 1196.25,105.3906 Q1195.4844,105.3906 1194.8438,105.7188 Q1194.2188,106.0469 1193.7188,106.7969 Q1193.2344,107.5469 1193.2344,108.5781 L1193.2344,109.6719 Q1193.2344,110.9063 1194.125,111.7344 Q1195.0156,112.5469 1196.6094,112.5469 Q1197.5469,112.5469 1198.2031,112.2969 Q1198.5938,112.1406 1199.0156,111.7031 Q1199.2813,111.4375 1199.4219,111.3594 Q1199.5781,111.2813 1199.7813,111.2813 Q1200.1094,111.2813 1200.3594,111.5469 Q1200.625,111.7969 1200.625,112.1406 Q1200.625,112.4844 1200.2813,112.8906 Q1199.7813,113.4688 1198.9844,113.7969 Q1197.9063,114.25 1196.6094,114.25 Q1195.0938,114.25 1193.8906,113.625 Q1192.9063,113.125 1192.2188,112.0625 Q1191.5313,110.9844 1191.5313,109.7031 L1191.5313,108.5469 Q1191.5313,107.2188 1192.1406,106.0781 Q1192.7656,104.9219 1193.8594,104.3125 Q1194.9531,103.6875 1196.1875,103.6875 Q1196.9219,103.6875 1197.5625,103.8594 Q1198.2188,104.0156 1198.7656,104.375 Z " fill="#000000"/><text fill="#000000" font-family="sans-serif" font-size="14" lengthAdjust="spacing" textLength="112.834" x="1210" y="114.2285">RoutesViewModel</text><line style="stroke:#181818;stroke-width:0.5;" x1="1182" x2="1324.834" y1="124.5" y2="124.5"/><line style="stroke:#181818;stroke-width:0.5;" x1="1182" x2="1324.834" y1="132.5" y2="132.5"/></g><!--class RouteDetailsViewModel--><g class="entity" data-qualified-name="ui.viewmodel.RouteDetailsViewModel" data-source-line="17" id="ent0012"><rect fill="#F1F1F1" height="48" rx="2.5" ry="2.5" style="stroke:#181818;stroke-width:0.5;" width="180.627" x="965" y="92.5"/><ellipse cx="980" cy="108.5" fill="#ADD1B2" rx="11" ry="11" style="stroke:#181818;stroke-width:1;"/><path d="M982.7656,104.375 Q982.9219,104.1563 983.1094,104.0469 Q983.2969,103.9375 983.5156,103.9375 Q983.8906,103.9375 984.125,104.2031 Q984.3594,104.4531 984.3594,105.0625 L984.3594,106.5156 Q984.3594,107.125 984.125,107.3906 Q983.8906,107.6563 983.5156,107.6563 Q983.1719,107.6563 982.9688,107.4531 Q982.7656,107.2656 982.6563,106.75 Q982.6094,106.3906 982.4219,106.2031 Q982.0938,105.8281 981.4844,105.6094 Q980.875,105.3906 980.25,105.3906 Q979.4844,105.3906 978.8438,105.7188 Q978.2188,106.0469 977.7188,106.7969 Q977.2344,107.5469 977.2344,108.5781 L977.2344,109.6719 Q977.2344,110.9063 978.125,111.7344 Q979.0156,112.5469 980.6094,112.5469 Q981.5469,112.5469 982.2031,112.2969 Q982.5938,112.1406 983.0156,111.7031 Q983.2813,111.4375 983.4219,111.3594 Q983.5781,111.2813 983.7813,111.2813 Q984.1094,111.2813 984.3594,111.5469 Q984.625,111.7969 984.625,112.1406 Q984.625,112.4844 984.2813,112.8906 Q983.7813,113.4688 982.9844,113.7969 Q981.9063,114.25 980.6094,114.25 Q979.0938,114.25 977.8906,113.625 Q976.9063,113.125 976.2188,112.0625 Q975.5313,110.9844 975.5313,109.7031 L975.5313,108.5469 Q975.5313,107.2188 976.1406,106.0781 Q976.7656,104.9219 977.8594,104.3125 Q978.9531,103.6875 980.1875,103.6875 Q980.9219,103.6875 981.5625,103.8594 Q982.2188,104.0156 982.7656,104.375 Z " fill="#000000"/><text fill="#000000" font-family="sans-serif" font-size="14" lengthAdjust="spacing" textLength="148.627" x="994" y="114.2285">RouteDetailsViewModel</text><line style="stroke:#181818;stroke-width:0.5;" x1="966" x2="1144.627" y1="124.5" y2="124.5"/><line style="stroke:#181818;stroke-width:0.5;" x1="966" x2="1144.627" y1="132.5" y2="132.5"/></g><!--class AuthViewModel--><g class="entity" data-qualified-name="ui.viewmodel.AuthViewModel" data-source-line="19" id="ent0013"><rect fill="#F1F1F1" height="48" rx="2.5" ry="2.5" style="stroke:#181818;stroke-width:0.5;" width="129.2754" x="1361" y="92.5"/><ellipse cx="1376" cy="108.5" fill="#ADD1B2" rx="11" ry="11" style="stroke:#181818;stroke-width:1;"/><path d="M1378.7656,104.375 Q1378.9219,104.1563 1379.1094,104.0469 Q1379.2969,103.9375 1379.5156,103.9375 Q1379.8906,103.9375 1380.125,104.2031 Q1380.3594,104.4531 1380.3594,105.0625 L1380.3594,106.5156 Q1380.3594,107.125 1380.125,107.3906 Q1379.8906,107.6563 1379.5156,107.6563 Q1379.1719,107.6563 1378.9688,107.4531 Q1378.7656,107.2656 1378.6563,106.75 Q1378.6094,106.3906 1378.4219,106.2031 Q1378.0938,105.8281 1377.4844,105.6094 Q1376.875,105.3906 1376.25,105.3906 Q1375.4844,105.3906 1374.8438,105.7188 Q1374.2188,106.0469 1373.7188,106.7969 Q1373.2344,107.5469 1373.2344,108.5781 L1373.2344,109.6719 Q1373.2344,110.9063 1374.125,111.7344 Q1375.0156,112.5469 1376.6094,112.5469 Q1377.5469,112.5469 1378.2031,112.2969 Q1378.5938,112.1406 1379.0156,111.7031 Q1379.2813,111.4375 1379.4219,111.3594 Q1379.5781,111.2813 1379.7813,111.2813 Q1380.1094,111.2813 1380.3594,111.5469 Q1380.625,111.7969 1380.625,112.1406 Q1380.625,112.4844 1380.2813,112.8906 Q1379.7813,113.4688 1378.9844,113.7969 Q1377.9063,114.25 1376.6094,114.25 Q1375.0938,114.25 1373.8906,113.625 Q1372.9063,113.125 1372.2188,112.0625 Q1371.5313,110.9844 1371.5313,109.7031 L1371.5313,108.5469 Q1371.5313,107.2188 1372.1406,106.0781 Q1372.7656,104.9219 1373.8594,104.3125 Q1374.9531,103.6875 1376.1875,103.6875 Q1376.9219,103.6875 1377.5625,103.8594 Q1378.2188,104.0156 1378.7656,104.375 Z " fill="#000000"/><text fill="#000000" font-family="sans-serif" font-size="14" lengthAdjust="spacing" textLength="97.2754" x="1390" y="114.2285">AuthViewModel</text><line style="stroke:#181818;stroke-width:0.5;" x1="1362" x2="1489.2754" y1="124.5" y2="124.5"/><line style="stroke:#181818;stroke-width:0.5;" x1="1362" x2="1489.2754" y1="132.5" y2="132.5"/></g><!--class ThemeViewModel--><g class="entity" data-qualified-name="ui.viewmodel.ThemeViewModel" data-source-line="20" id="ent0014"><rect fill="#F1F1F1" height="48" rx="2.5" ry="2.5" style="stroke:#181818;stroke-width:0.5;" width="144.0479" x="1688.5" y="92.5"/><ellipse cx="1703.5" cy="108.5" fill="#ADD1B2" rx="11" ry="11" style="stroke:#181818;stroke-width:1;"/><path d="M1706.2656,104.375 Q1706.4219,104.1563 1706.6094,104.0469 Q1706.7969,103.9375 1707.0156,103.9375 Q1707.3906,103.9375 1707.625,104.2031 Q1707.8594,104.4531 1707.8594,105.0625 L1707.8594,106.5156 Q1707.8594,107.125 1707.625,107.3906 Q1707.3906,107.6563 1707.0156,107.6563 Q1706.6719,107.6563 1706.4688,107.4531 Q1706.2656,107.2656 1706.1563,106.75 Q1706.1094,106.3906 1705.9219,106.2031 Q1705.5938,105.8281 1704.9844,105.6094 Q1704.375,105.3906 1703.75,105.3906 Q1702.9844,105.3906 1702.3438,105.7188 Q1701.7188,106.0469 1701.2188,106.7969 Q1700.7344,107.5469 1700.7344,108.5781 L1700.7344,109.6719 Q1700.7344,110.9063 1701.625,111.7344 Q1702.5156,112.5469 1704.1094,112.5469 Q1705.0469,112.5469 1705.7031,112.2969 Q1706.0938,112.1406 1706.5156,111.7031 Q1706.7813,111.4375 1706.9219,111.3594 Q1707.0781,111.2813 1707.2813,111.2813 Q1707.6094,111.2813 1707.8594,111.5469 Q1708.125,111.7969 1708.125,112.1406 Q1708.125,112.4844 1707.7813,112.8906 Q1707.2813,113.4688 1706.4844,113.7969 Q1705.4063,114.25 1704.1094,114.25 Q1702.5938,114.25 1701.3906,113.625 Q1700.4063,113.125 1699.7188,112.0625 Q1699.0313,110.9844 1699.0313,109.7031 L1699.0313,108.5469 Q1699.0313,107.2188 1699.6406,106.0781 Q1700.2656,104.9219 1701.3594,104.3125 Q1702.4531,103.6875 1703.6875,103.6875 Q1704.4219,103.6875 1705.0625,103.8594 Q1705.7188,104.0156 1706.2656,104.375 Z " fill="#000000"/><text fill="#000000" font-family="sans-serif" font-size="14" lengthAdjust="spacing" textLength="112.0479" x="1717.5" y="114.2285">ThemeViewModel</text><line style="stroke:#181818;stroke-width:0.5;" x1="1689.5" x2="1831.5479" y1="124.5" y2="124.5"/><line style="stroke:#181818;stroke-width:0.5;" x1="1689.5" x2="1831.5479" y1="132.5" y2="132.5"/></g><!--class LanguageViewModel--><g class="entity" data-qualified-name="ui.viewmodel.LanguageViewModel" data-source-line="21" id="ent0015"><rect fill="#F1F1F1" height="48" rx="2.5" ry="2.5" style="stroke:#181818;stroke-width:0.5;" width="162.7646" x="1868" y="92.5"/><ellipse cx="1883" cy="108.5" fill="#ADD1B2" rx="11" ry="11" style="stroke:#181818;stroke-width:1;"/><path d="M1885.7656,104.375 Q1885.9219,104.1563 1886.1094,104.0469 Q1886.2969,103.9375 1886.5156,103.9375 Q1886.8906,103.9375 1887.125,104.2031 Q1887.3594,104.4531 1887.3594,105.0625 L1887.3594,106.5156 Q1887.3594,107.125 1887.125,107.3906 Q1886.8906,107.6563 1886.5156,107.6563 Q1886.1719,107.6563 1885.9688,107.4531 Q1885.7656,107.2656 1885.6563,106.75 Q1885.6094,106.3906 1885.4219,106.2031 Q1885.0938,105.8281 1884.4844,105.6094 Q1883.875,105.3906 1883.25,105.3906 Q1882.4844,105.3906 1881.8438,105.7188 Q1881.2188,106.0469 1880.7188,106.7969 Q1880.2344,107.5469 1880.2344,108.5781 L1880.2344,109.6719 Q1880.2344,110.9063 1881.125,111.7344 Q1882.0156,112.5469 1883.6094,112.5469 Q1884.5469,112.5469 1885.2031,112.2969 Q1885.5938,112.1406 1886.0156,111.7031 Q1886.2813,111.4375 1886.4219,111.3594 Q1886.5781,111.2813 1886.7813,111.2813 Q1887.1094,111.2813 1887.3594,111.5469 Q1887.625,111.7969 1887.625,112.1406 Q1887.625,112.4844 1887.2813,112.8906 Q1886.7813,113.4688 1885.9844,113.7969 Q1884.9063,114.25 1883.6094,114.25 Q1882.0938,114.25 1880.8906,113.625 Q1879.9063,113.125 1879.2188,112.0625 Q1878.5313,110.9844 1878.5313,109.7031 L1878.5313,108.5469 Q1878.5313,107.2188 1879.1406,106.0781 Q1879.7656,104.9219 1880.8594,104.3125 Q1881.9531,103.6875 1883.1875,103.6875 Q1883.9219,103.6875 1884.5625,103.8594 Q1885.2188,104.0156 1885.7656,104.375 Z " fill="#000000"/><text fill="#000000" font-family="sans-serif" font-size="14" lengthAdjust="spacing" textLength="130.7646" x="1897" y="114.2285">LanguageViewModel</text><line style="stroke:#181818;stroke-width:0.5;" x1="1869" x2="2029.7646" y1="124.5" y2="124.5"/><line style="stroke:#181818;stroke-width:0.5;" x1="1869" x2="2029.7646" y1="132.5" y2="132.5"/></g><!--class FontSizeViewModel--><g class="entity" data-qualified-name="ui.viewmodel.FontSizeViewModel" data-source-line="22" id="ent0016"><rect fill="#F1F1F1" height="48" rx="2.5" ry="2.5" style="stroke:#181818;stroke-width:0.5;" width="155.7236" x="2066.5" y="92.5"/><ellipse cx="2081.5" cy="108.5" fill="#ADD1B2" rx="11" ry="11" style="stroke:#181818;stroke-width:1;"/><path d="M2084.2656,104.375 Q2084.4219,104.1563 2084.6094,104.0469 Q2084.7969,103.9375 2085.0156,103.9375 Q2085.3906,103.9375 2085.625,104.2031 Q2085.8594,104.4531 2085.8594,105.0625 L2085.8594,106.5156 Q2085.8594,107.125 2085.625,107.3906 Q2085.3906,107.6563 2085.0156,107.6563 Q2084.6719,107.6563 2084.4688,107.4531 Q2084.2656,107.2656 2084.1563,106.75 Q2084.1094,106.3906 2083.9219,106.2031 Q2083.5938,105.8281 2082.9844,105.6094 Q2082.375,105.3906 2081.75,105.3906 Q2080.9844,105.3906 2080.3438,105.7188 Q2079.7188,106.0469 2079.2188,106.7969 Q2078.7344,107.5469 2078.7344,108.5781 L2078.7344,109.6719 Q2078.7344,110.9063 2079.625,111.7344 Q2080.5156,112.5469 2082.1094,112.5469 Q2083.0469,112.5469 2083.7031,112.2969 Q2084.0938,112.1406 2084.5156,111.7031 Q2084.7813,111.4375 2084.9219,111.3594 Q2085.0781,111.2813 2085.2813,111.2813 Q2085.6094,111.2813 2085.8594,111.5469 Q2086.125,111.7969 2086.125,112.1406 Q2086.125,112.4844 2085.7813,112.8906 Q2085.2813,113.4688 2084.4844,113.7969 Q2083.4063,114.25 2082.1094,114.25 Q2080.5938,114.25 2079.3906,113.625 Q2078.4063,113.125 2077.7188,112.0625 Q2077.0313,110.9844 2077.0313,109.7031 L2077.0313,108.5469 Q2077.0313,107.2188 2077.6406,106.0781 Q2078.2656,104.9219 2079.3594,104.3125 Q2080.4531,103.6875 2081.6875,103.6875 Q2082.4219,103.6875 2083.0625,103.8594 Q2083.7188,104.0156 2084.2656,104.375 Z " fill="#000000"/><text fill="#000000" font-family="sans-serif" font-size="14" lengthAdjust="spacing" textLength="123.7236" x="2095.5" y="114.2285">FontSizeViewModel</text><line style="stroke:#181818;stroke-width:0.5;" x1="2067.5" x2="2221.2236" y1="124.5" y2="124.5"/><line style="stroke:#181818;stroke-width:0.5;" x1="2067.5" x2="2221.2236" y1="132.5" y2="132.5"/></g><!--class NotificationsViewModel--><g class="entity" data-qualified-name="ui.viewmodel.NotificationsViewModel" data-source-line="23" id="ent0017"><rect fill="#F1F1F1" height="48" rx="2.5" ry="2.5" style="stroke:#181818;stroke-width:0.5;" width="176.7305" x="2258" y="92.5"/><ellipse cx="2273" cy="108.5" fill="#ADD1B2" rx="11" ry="11" style="stroke:#181818;stroke-width:1;"/><path d="M2275.7656,104.375 Q2275.9219,104.1563 2276.1094,104.0469 Q2276.2969,103.9375 2276.5156,103.9375 Q2276.8906,103.9375 2277.125,104.2031 Q2277.3594,104.4531 2277.3594,105.0625 L2277.3594,106.5156 Q2277.3594,107.125 2277.125,107.3906 Q2276.8906,107.6563 2276.5156,107.6563 Q2276.1719,107.6563 2275.9688,107.4531 Q2275.7656,107.2656 2275.6563,106.75 Q2275.6094,106.3906 2275.4219,106.2031 Q2275.0938,105.8281 2274.4844,105.6094 Q2273.875,105.3906 2273.25,105.3906 Q2272.4844,105.3906 2271.8438,105.7188 Q2271.2188,106.0469 2270.7188,106.7969 Q2270.2344,107.5469 2270.2344,108.5781 L2270.2344,109.6719 Q2270.2344,110.9063 2271.125,111.7344 Q2272.0156,112.5469 2273.6094,112.5469 Q2274.5469,112.5469 2275.2031,112.2969 Q2275.5938,112.1406 2276.0156,111.7031 Q2276.2813,111.4375 2276.4219,111.3594 Q2276.5781,111.2813 2276.7813,111.2813 Q2277.1094,111.2813 2277.3594,111.5469 Q2277.625,111.7969 2277.625,112.1406 Q2277.625,112.4844 2277.2813,112.8906 Q2276.7813,113.4688 2275.9844,113.7969 Q2274.9063,114.25 2273.6094,114.25 Q2272.0938,114.25 2270.8906,113.625 Q2269.9063,113.125 2269.2188,112.0625 Q2268.5313,110.9844 2268.5313,109.7031 L2268.5313,108.5469 Q2268.5313,107.2188 2269.1406,106.0781 Q2269.7656,104.9219 2270.8594,104.3125 Q2271.9531,103.6875 2273.1875,103.6875 Q2273.9219,103.6875 2274.5625,103.8594 Q2275.2188,104.0156 2275.7656,104.375 Z " fill="#000000"/><text fill="#000000" font-family="sans-serif" font-size="14" lengthAdjust="spacing" textLength="144.7305" x="2287" y="114.2285">NotificationsViewModel</text><line style="stroke:#181818;stroke-width:0.5;" x1="2259" x2="2433.7305" y1="124.5" y2="124.5"/><line style="stroke:#181818;stroke-width:0.5;" x1="2259" x2="2433.7305" y1="132.5" y2="132.5"/></g><!--class MapUiState--><g class="entity" data-qualified-name="ui.viewmodel.MapUiState" data-source-line="25" id="ent0018"><rect fill="#F1F1F1" height="58.7031" rx="2.5" ry="2.5" style="stroke:#181818;stroke-width:0.5;" width="105.1445" x="825" y="87"/><ellipse cx="840" cy="108.3516" fill="#ADD1B2" rx="11" ry="11" style="stroke:#181818;stroke-width:1;"/><path d="M842.7656,104.2266 Q842.9219,104.0078 843.1094,103.8984 Q843.2969,103.7891 843.5156,103.7891 Q843.8906,103.7891 844.125,104.0547 Q844.3594,104.3047 844.3594,104.9141 L844.3594,106.3672 Q844.3594,106.9766 844.125,107.2422 Q843.8906,107.5078 843.5156,107.5078 Q843.1719,107.5078 842.9688,107.3047 Q842.7656,107.1172 842.6563,106.6016 Q842.6094,106.2422 842.4219,106.0547 Q842.0938,105.6797 841.4844,105.4609 Q840.875,105.2422 840.25,105.2422 Q839.4844,105.2422 838.8438,105.5703 Q838.2188,105.8984 837.7188,106.6484 Q837.2344,107.3984 837.2344,108.4297 L837.2344,109.5234 Q837.2344,110.7578 838.125,111.5859 Q839.0156,112.3984 840.6094,112.3984 Q841.5469,112.3984 842.2031,112.1484 Q842.5938,111.9922 843.0156,111.5547 Q843.2813,111.2891 843.4219,111.2109 Q843.5781,111.1328 843.7813,111.1328 Q844.1094,111.1328 844.3594,111.3984 Q844.625,111.6484 844.625,111.9922 Q844.625,112.3359 844.2813,112.7422 Q843.7813,113.3203 842.9844,113.6484 Q841.9063,114.1016 840.6094,114.1016 Q839.0938,114.1016 837.8906,113.4766 Q836.9063,112.9766 836.2188,111.9141 Q835.5313,110.8359 835.5313,109.5547 L835.5313,108.3984 Q835.5313,107.0703 836.1406,105.9297 Q836.7656,104.7734 837.8594,104.1641 Q838.9531,103.5391 840.1875,103.5391 Q840.9219,103.5391 841.5625,103.7109 Q842.2188,103.8672 842.7656,104.2266 Z " fill="#000000"/><text fill="#000000" font-family="sans-serif" font-size="12" font-style="italic" lengthAdjust="spacing" textLength="36.7031" x="872.2207" y="104.457">&#171;data&#187;</text><text fill="#000000" font-family="sans-serif" font-size="14" lengthAdjust="spacing" textLength="73.1445" x="854" y="121.627">MapUiState</text><line style="stroke:#181818;stroke-width:0.5;" x1="826" x2="929.1445" y1="129.7031" y2="129.7031"/><line style="stroke:#181818;stroke-width:0.5;" x1="826" x2="929.1445" y1="137.7031" y2="137.7031"/></g><!--class RouteRepository--><g class="entity" data-qualified-name="data.repository.RouteRepository" data-source-line="30" id="ent0020"><rect fill="#F1F1F1" height="48" rx="2.5" ry="2.5" style="stroke:#181818;stroke-width:0.5;" width="136.2754" x="760.5" y="304.5"/><ellipse cx="775.5" cy="320.5" fill="#ADD1B2" rx="11" ry="11" style="stroke:#181818;stroke-width:1;"/><path d="M778.2656,316.375 Q778.4219,316.1563 778.6094,316.0469 Q778.7969,315.9375 779.0156,315.9375 Q779.3906,315.9375 779.625,316.2031 Q779.8594,316.4531 779.8594,317.0625 L779.8594,318.5156 Q779.8594,319.125 779.625,319.3906 Q779.3906,319.6563 779.0156,319.6563 Q778.6719,319.6563 778.4688,319.4531 Q778.2656,319.2656 778.1563,318.75 Q778.1094,318.3906 777.9219,318.2031 Q777.5938,317.8281 776.9844,317.6094 Q776.375,317.3906 775.75,317.3906 Q774.9844,317.3906 774.3438,317.7188 Q773.7188,318.0469 773.2188,318.7969 Q772.7344,319.5469 772.7344,320.5781 L772.7344,321.6719 Q772.7344,322.9063 773.625,323.7344 Q774.5156,324.5469 776.1094,324.5469 Q777.0469,324.5469 777.7031,324.2969 Q778.0938,324.1406 778.5156,323.7031 Q778.7813,323.4375 778.9219,323.3594 Q779.0781,323.2813 779.2813,323.2813 Q779.6094,323.2813 779.8594,323.5469 Q780.125,323.7969 780.125,324.1406 Q780.125,324.4844 779.7813,324.8906 Q779.2813,325.4688 778.4844,325.7969 Q777.4063,326.25 776.1094,326.25 Q774.5938,326.25 773.3906,325.625 Q772.4063,325.125 771.7188,324.0625 Q771.0313,322.9844 771.0313,321.7031 L771.0313,320.5469 Q771.0313,319.2188 771.6406,318.0781 Q772.2656,316.9219 773.3594,316.3125 Q774.4531,315.6875 775.6875,315.6875 Q776.4219,315.6875 777.0625,315.8594 Q777.7188,316.0156 778.2656,316.375 Z " fill="#000000"/><text fill="#000000" font-family="sans-serif" font-size="14" lengthAdjust="spacing" textLength="104.2754" x="789.5" y="326.2285">RouteRepository</text><line style="stroke:#181818;stroke-width:0.5;" x1="761.5" x2="895.7754" y1="336.5" y2="336.5"/><line style="stroke:#181818;stroke-width:0.5;" x1="761.5" x2="895.7754" y1="344.5" y2="344.5"/></g><!--class AuthRepository--><g class="entity" data-qualified-name="data.repository.AuthRepository" data-source-line="31" id="ent0022"><rect fill="#F1F1F1" height="48" rx="2.5" ry="2.5" style="stroke:#181818;stroke-width:0.5;" width="127.7168" x="931.5" y="304.5"/><ellipse cx="946.5" cy="320.5" fill="#ADD1B2" rx="11" ry="11" style="stroke:#181818;stroke-width:1;"/><path d="M949.2656,316.375 Q949.4219,316.1563 949.6094,316.0469 Q949.7969,315.9375 950.0156,315.9375 Q950.3906,315.9375 950.625,316.2031 Q950.8594,316.4531 950.8594,317.0625 L950.8594,318.5156 Q950.8594,319.125 950.625,319.3906 Q950.3906,319.6563 950.0156,319.6563 Q949.6719,319.6563 949.4688,319.4531 Q949.2656,319.2656 949.1563,318.75 Q949.1094,318.3906 948.9219,318.2031 Q948.5938,317.8281 947.9844,317.6094 Q947.375,317.3906 946.75,317.3906 Q945.9844,317.3906 945.3438,317.7188 Q944.7188,318.0469 944.2188,318.7969 Q943.7344,319.5469 943.7344,320.5781 L943.7344,321.6719 Q943.7344,322.9063 944.625,323.7344 Q945.5156,324.5469 947.1094,324.5469 Q948.0469,324.5469 948.7031,324.2969 Q949.0938,324.1406 949.5156,323.7031 Q949.7813,323.4375 949.9219,323.3594 Q950.0781,323.2813 950.2813,323.2813 Q950.6094,323.2813 950.8594,323.5469 Q951.125,323.7969 951.125,324.1406 Q951.125,324.4844 950.7813,324.8906 Q950.2813,325.4688 949.4844,325.7969 Q948.4063,326.25 947.1094,326.25 Q945.5938,326.25 944.3906,325.625 Q943.4063,325.125 942.7188,324.0625 Q942.0313,322.9844 942.0313,321.7031 L942.0313,320.5469 Q942.0313,319.2188 942.6406,318.0781 Q943.2656,316.9219 944.3594,316.3125 Q945.4531,315.6875 946.6875,315.6875 Q947.4219,315.6875 948.0625,315.8594 Q948.7188,316.0156 949.2656,316.375 Z " fill="#000000"/><text fill="#000000" font-family="sans-serif" font-size="14" lengthAdjust="spacing" textLength="95.7168" x="960.5" y="326.2285">AuthRepository</text><line style="stroke:#181818;stroke-width:0.5;" x1="932.5" x2="1058.2168" y1="336.5" y2="336.5"/><line style="stroke:#181818;stroke-width:0.5;" x1="932.5" x2="1058.2168" y1="344.5" y2="344.5"/></g><!--class RouteApi--><g class="entity" data-qualified-name="data.api.RouteApi" data-source-line="36" id="ent0024"><rect fill="#F1F1F1" height="48" rx="2.5" ry="2.5" style="stroke:#181818;stroke-width:0.5;" width="89.5928" x="700.5" y="448.5"/><ellipse cx="715.5" cy="464.5" fill="#B4A7E5" rx="11" ry="11" style="stroke:#181818;stroke-width:1;"/><path d="M716.4531,461.1406 L716.4531,467.7969 L718.1719,467.7969 Q718.7813,467.7969 719.0469,468.0313 Q719.3125,468.2656 719.3125,468.6563 Q719.3125,469.0313 719.0469,469.2656 Q718.7813,469.5 718.1719,469.5 L713.0313,469.5 Q712.4219,469.5 712.1563,469.2656 Q711.8906,469.0313 711.8906,468.6406 Q711.8906,468.2656 712.1563,468.0313 Q712.4219,467.7969 713.0313,467.7969 L714.75,467.7969 L714.75,461.1406 L713.0313,461.1406 Q712.4219,461.1406 712.1563,460.9063 Q711.8906,460.6719 711.8906,460.2813 Q711.8906,459.9063 712.1563,459.6719 Q712.4219,459.4375 713.0313,459.4375 L718.1719,459.4375 Q718.7813,459.4375 719.0469,459.6719 Q719.3125,459.9063 719.3125,460.2813 Q719.3125,460.6719 719.0469,460.9063 Q718.7813,461.1406 718.1719,461.1406 L716.4531,461.1406 Z " fill="#000000"/><text fill="#000000" font-family="sans-serif" font-size="14" font-style="italic" lengthAdjust="spacing" textLength="57.5928" x="729.5" y="470.2285">RouteApi</text><line style="stroke:#181818;stroke-width:0.5;" x1="701.5" x2="789.0928" y1="480.5" y2="480.5"/><line style="stroke:#181818;stroke-width:0.5;" x1="701.5" x2="789.0928" y1="488.5" y2="488.5"/></g><!--class AuthApi--><g class="entity" data-qualified-name="data.api.AuthApi" data-source-line="37" id="ent0025"><rect fill="#F1F1F1" height="48" rx="2.5" ry="2.5" style="stroke:#181818;stroke-width:0.5;" width="81.0342" x="826" y="448.5"/><ellipse cx="841" cy="464.5" fill="#B4A7E5" rx="11" ry="11" style="stroke:#181818;stroke-width:1;"/><path d="M841.9531,461.1406 L841.9531,467.7969 L843.6719,467.7969 Q844.2813,467.7969 844.5469,468.0313 Q844.8125,468.2656 844.8125,468.6563 Q844.8125,469.0313 844.5469,469.2656 Q844.2813,469.5 843.6719,469.5 L838.5313,469.5 Q837.9219,469.5 837.6563,469.2656 Q837.3906,469.0313 837.3906,468.6406 Q837.3906,468.2656 837.6563,468.0313 Q837.9219,467.7969 838.5313,467.7969 L840.25,467.7969 L840.25,461.1406 L838.5313,461.1406 Q837.9219,461.1406 837.6563,460.9063 Q837.3906,460.6719 837.3906,460.2813 Q837.3906,459.9063 837.6563,459.6719 Q837.9219,459.4375 838.5313,459.4375 L843.6719,459.4375 Q844.2813,459.4375 844.5469,459.6719 Q844.8125,459.9063 844.8125,460.2813 Q844.8125,460.6719 844.5469,460.9063 Q844.2813,461.1406 843.6719,461.1406 L841.9531,461.1406 Z " fill="#000000"/><text fill="#000000" font-family="sans-serif" font-size="14" font-style="italic" lengthAdjust="spacing" textLength="49.0342" x="855" y="470.2285">AuthApi</text><line style="stroke:#181818;stroke-width:0.5;" x1="827" x2="906.0342" y1="480.5" y2="480.5"/><line style="stroke:#181818;stroke-width:0.5;" x1="827" x2="906.0342" y1="488.5" y2="488.5"/></g><!--class AppDatabase--><g class="entity" data-qualified-name="data.database.AppDatabase" data-source-line="42" id="ent0027"><rect fill="#F1F1F1" height="58.7031" rx="2.5" ry="2.5" style="stroke:#181818;stroke-width:0.5;" width="124.7266" x="262" y="299"/><ellipse cx="277" cy="320.3516" fill="#ADD1B2" rx="11" ry="11" style="stroke:#181818;stroke-width:1;"/><path d="M279.7656,316.2266 Q279.9219,316.0078 280.1094,315.8984 Q280.2969,315.7891 280.5156,315.7891 Q280.8906,315.7891 281.125,316.0547 Q281.3594,316.3047 281.3594,316.9141 L281.3594,318.3672 Q281.3594,318.9766 281.125,319.2422 Q280.8906,319.5078 280.5156,319.5078 Q280.1719,319.5078 279.9688,319.3047 Q279.7656,319.1172 279.6563,318.6016 Q279.6094,318.2422 279.4219,318.0547 Q279.0938,317.6797 278.4844,317.4609 Q277.875,317.2422 277.25,317.2422 Q276.4844,317.2422 275.8438,317.5703 Q275.2188,317.8984 274.7188,318.6484 Q274.2344,319.3984 274.2344,320.4297 L274.2344,321.5234 Q274.2344,322.7578 275.125,323.5859 Q276.0156,324.3984 277.6094,324.3984 Q278.5469,324.3984 279.2031,324.1484 Q279.5938,323.9922 280.0156,323.5547 Q280.2813,323.2891 280.4219,323.2109 Q280.5781,323.1328 280.7813,323.1328 Q281.1094,323.1328 281.3594,323.3984 Q281.625,323.6484 281.625,323.9922 Q281.625,324.3359 281.2813,324.7422 Q280.7813,325.3203 279.9844,325.6484 Q278.9063,326.1016 277.6094,326.1016 Q276.0938,326.1016 274.8906,325.4766 Q273.9063,324.9766 273.2188,323.9141 Q272.5313,322.8359 272.5313,321.5547 L272.5313,320.3984 Q272.5313,319.0703 273.1406,317.9297 Q273.7656,316.7734 274.8594,316.1641 Q275.9531,315.5391 277.1875,315.5391 Q277.9219,315.5391 278.5625,315.7109 Q279.2188,315.8672 279.7656,316.2266 Z " fill="#000000"/><text fill="#000000" font-family="sans-serif" font-size="12" font-style="italic" lengthAdjust="spacing" textLength="96.7266" x="289" y="316.457">&#171;RoomDatabase&#187;</text><text fill="#000000" font-family="sans-serif" font-size="14" lengthAdjust="spacing" textLength="84.8408" x="294.9429" y="333.627">AppDatabase</text><line style="stroke:#181818;stroke-width:0.5;" x1="263" x2="385.7266" y1="341.7031" y2="341.7031"/><line style="stroke:#181818;stroke-width:0.5;" x1="263" x2="385.7266" y1="349.7031" y2="349.7031"/></g><!--class RouteDao--><g class="entity" data-qualified-name="data.database.dao.RouteDao" data-source-line="46" id="ent0029"><rect fill="#F1F1F1" height="58.7031" rx="2.5" ry="2.5" style="stroke:#181818;stroke-width:0.5;" width="95.041" x="199" y="443"/><ellipse cx="214" cy="464.3516" fill="#B4A7E5" rx="11" ry="11" style="stroke:#181818;stroke-width:1;"/><path d="M214.9531,460.9922 L214.9531,467.6484 L216.6719,467.6484 Q217.2813,467.6484 217.5469,467.8828 Q217.8125,468.1172 217.8125,468.5078 Q217.8125,468.8828 217.5469,469.1172 Q217.2813,469.3516 216.6719,469.3516 L211.5313,469.3516 Q210.9219,469.3516 210.6563,469.1172 Q210.3906,468.8828 210.3906,468.4922 Q210.3906,468.1172 210.6563,467.8828 Q210.9219,467.6484 211.5313,467.6484 L213.25,467.6484 L213.25,460.9922 L211.5313,460.9922 Q210.9219,460.9922 210.6563,460.7578 Q210.3906,460.5234 210.3906,460.1328 Q210.3906,459.7578 210.6563,459.5234 Q210.9219,459.2891 211.5313,459.2891 L216.6719,459.2891 Q217.2813,459.2891 217.5469,459.5234 Q217.8125,459.7578 217.8125,460.1328 Q217.8125,460.5234 217.5469,460.7578 Q217.2813,460.9922 216.6719,460.9922 L214.9531,460.9922 Z " fill="#000000"/><text fill="#000000" font-family="sans-serif" font-size="12" font-style="italic" lengthAdjust="spacing" textLength="39.3516" x="239.8447" y="460.457">&#171;DAO&#187;</text><text fill="#000000" font-family="sans-serif" font-size="14" font-style="italic" lengthAdjust="spacing" textLength="63.041" x="228" y="477.627">RouteDao</text><line style="stroke:#181818;stroke-width:0.5;" x1="200" x2="293.041" y1="485.7031" y2="485.7031"/><line style="stroke:#181818;stroke-width:0.5;" x1="200" x2="293.041" y1="493.7031" y2="493.7031"/></g><!--class AttractionDao--><g class="entity" data-qualified-name="data.database.dao.AttractionDao" data-source-line="47" id="ent0030"><rect fill="#F1F1F1" height="58.7031" rx="2.5" ry="2.5" style="stroke:#181818;stroke-width:0.5;" width="116.8203" x="329" y="443"/><ellipse cx="344" cy="464.3516" fill="#B4A7E5" rx="11" ry="11" style="stroke:#181818;stroke-width:1;"/><path d="M344.9531,460.9922 L344.9531,467.6484 L346.6719,467.6484 Q347.2813,467.6484 347.5469,467.8828 Q347.8125,468.1172 347.8125,468.5078 Q347.8125,468.8828 347.5469,469.1172 Q347.2813,469.3516 346.6719,469.3516 L341.5313,469.3516 Q340.9219,469.3516 340.6563,469.1172 Q340.3906,468.8828 340.3906,468.4922 Q340.3906,468.1172 340.6563,467.8828 Q340.9219,467.6484 341.5313,467.6484 L343.25,467.6484 L343.25,460.9922 L341.5313,460.9922 Q340.9219,460.9922 340.6563,460.7578 Q340.3906,460.5234 340.3906,460.1328 Q340.3906,459.7578 340.6563,459.5234 Q340.9219,459.2891 341.5313,459.2891 L346.6719,459.2891 Q347.2813,459.2891 347.5469,459.5234 Q347.8125,459.7578 347.8125,460.1328 Q347.8125,460.5234 347.5469,460.7578 Q347.2813,460.9922 346.6719,460.9922 L344.9531,460.9922 Z " fill="#000000"/><text fill="#000000" font-family="sans-serif" font-size="12" font-style="italic" lengthAdjust="spacing" textLength="39.3516" x="380.7344" y="460.457">&#171;DAO&#187;</text><text fill="#000000" font-family="sans-serif" font-size="14" font-style="italic" lengthAdjust="spacing" textLength="84.8203" x="358" y="477.627">AttractionDao</text><line style="stroke:#181818;stroke-width:0.5;" x1="330" x2="444.8203" y1="485.7031" y2="485.7031"/><line style="stroke:#181818;stroke-width:0.5;" x1="330" x2="444.8203" y1="493.7031" y2="493.7031"/></g><!--class RouteEntity--><g class="entity" data-qualified-name="data.database.entity.RouteEntity" data-source-line="51" id="ent0032"><rect fill="#F1F1F1" height="58.7031" rx="2.5" ry="2.5" style="stroke:#181818;stroke-width:0.5;" width="104.3721" x="283.5" y="625.5"/><ellipse cx="298.5" cy="646.8516" fill="#ADD1B2" rx="11" ry="11" style="stroke:#181818;stroke-width:1;"/><path d="M301.2656,642.7266 Q301.4219,642.5078 301.6094,642.3984 Q301.7969,642.2891 302.0156,642.2891 Q302.3906,642.2891 302.625,642.5547 Q302.8594,642.8047 302.8594,643.4141 L302.8594,644.8672 Q302.8594,645.4766 302.625,645.7422 Q302.3906,646.0078 302.0156,646.0078 Q301.6719,646.0078 301.4688,645.8047 Q301.2656,645.6172 301.1563,645.1016 Q301.1094,644.7422 300.9219,644.5547 Q300.5938,644.1797 299.9844,643.9609 Q299.375,643.7422 298.75,643.7422 Q297.9844,643.7422 297.3438,644.0703 Q296.7188,644.3984 296.2188,645.1484 Q295.7344,645.8984 295.7344,646.9297 L295.7344,648.0234 Q295.7344,649.2578 296.625,650.0859 Q297.5156,650.8984 299.1094,650.8984 Q300.0469,650.8984 300.7031,650.6484 Q301.0938,650.4922 301.5156,650.0547 Q301.7813,649.7891 301.9219,649.7109 Q302.0781,649.6328 302.2813,649.6328 Q302.6094,649.6328 302.8594,649.8984 Q303.125,650.1484 303.125,650.4922 Q303.125,650.8359 302.7813,651.2422 Q302.2813,651.8203 301.4844,652.1484 Q300.4063,652.6016 299.1094,652.6016 Q297.5938,652.6016 296.3906,651.9766 Q295.4063,651.4766 294.7188,650.4141 Q294.0313,649.3359 294.0313,648.0547 L294.0313,646.8984 Q294.0313,645.5703 294.6406,644.4297 Q295.2656,643.2734 296.3594,642.6641 Q297.4531,642.0391 298.6875,642.0391 Q299.4219,642.0391 300.0625,642.2109 Q300.7188,642.3672 301.2656,642.7266 Z " fill="#000000"/><text fill="#000000" font-family="sans-serif" font-size="12" font-style="italic" lengthAdjust="spacing" textLength="43.3594" x="327.0063" y="642.957">&#171;Entity&#187;</text><text fill="#000000" font-family="sans-serif" font-size="14" lengthAdjust="spacing" textLength="72.3721" x="312.5" y="660.127">RouteEntity</text><line style="stroke:#181818;stroke-width:0.5;" x1="284.5" x2="386.8721" y1="668.2031" y2="668.2031"/><line style="stroke:#181818;stroke-width:0.5;" x1="284.5" x2="386.8721" y1="676.2031" y2="676.2031"/></g><!--class AttractionEntity--><g class="entity" data-qualified-name="data.database.entity.AttractionEntity" data-source-line="52" id="ent0033"><rect fill="#F1F1F1" height="58.7031" rx="2.5" ry="2.5" style="stroke:#181818;stroke-width:0.5;" width="126.1514" x="283.5" y="762.5"/><ellipse cx="298.5" cy="783.8516" fill="#ADD1B2" rx="11" ry="11" style="stroke:#181818;stroke-width:1;"/><path d="M301.2656,779.7266 Q301.4219,779.5078 301.6094,779.3984 Q301.7969,779.2891 302.0156,779.2891 Q302.3906,779.2891 302.625,779.5547 Q302.8594,779.8047 302.8594,780.4141 L302.8594,781.8672 Q302.8594,782.4766 302.625,782.7422 Q302.3906,783.0078 302.0156,783.0078 Q301.6719,783.0078 301.4688,782.8047 Q301.2656,782.6172 301.1563,782.1016 Q301.1094,781.7422 300.9219,781.5547 Q300.5938,781.1797 299.9844,780.9609 Q299.375,780.7422 298.75,780.7422 Q297.9844,780.7422 297.3438,781.0703 Q296.7188,781.3984 296.2188,782.1484 Q295.7344,782.8984 295.7344,783.9297 L295.7344,785.0234 Q295.7344,786.2578 296.625,787.0859 Q297.5156,787.8984 299.1094,787.8984 Q300.0469,787.8984 300.7031,787.6484 Q301.0938,787.4922 301.5156,787.0547 Q301.7813,786.7891 301.9219,786.7109 Q302.0781,786.6328 302.2813,786.6328 Q302.6094,786.6328 302.8594,786.8984 Q303.125,787.1484 303.125,787.4922 Q303.125,787.8359 302.7813,788.2422 Q302.2813,788.8203 301.4844,789.1484 Q300.4063,789.6016 299.1094,789.6016 Q297.5938,789.6016 296.3906,788.9766 Q295.4063,788.4766 294.7188,787.4141 Q294.0313,786.3359 294.0313,785.0547 L294.0313,783.8984 Q294.0313,782.5703 294.6406,781.4297 Q295.2656,780.2734 296.3594,779.6641 Q297.4531,779.0391 298.6875,779.0391 Q299.4219,779.0391 300.0625,779.2109 Q300.7188,779.3672 301.2656,779.7266 Z " fill="#000000"/><text fill="#000000" font-family="sans-serif" font-size="12" font-style="italic" lengthAdjust="spacing" textLength="43.3594" x="337.896" y="779.957">&#171;Entity&#187;</text><text fill="#000000" font-family="sans-serif" font-size="14" lengthAdjust="spacing" textLength="94.1514" x="312.5" y="797.127">AttractionEntity</text><line style="stroke:#181818;stroke-width:0.5;" x1="284.5" x2="408.6514" y1="805.2031" y2="805.2031"/><line style="stroke:#181818;stroke-width:0.5;" x1="284.5" x2="408.6514" y1="813.2031" y2="813.2031"/></g><!--class PreferencesManager--><g class="entity" data-qualified-name="data.local.PreferencesManager" data-source-line="57" id="ent0036"><rect fill="#F1F1F1" height="58.7031" rx="2.5" ry="2.5" style="stroke:#181818;stroke-width:0.5;" width="162.7373" x="1142" y="443"/><ellipse cx="1157" cy="464.3516" fill="#ADD1B2" rx="11" ry="11" style="stroke:#181818;stroke-width:1;"/><path d="M1159.7656,460.2266 Q1159.9219,460.0078 1160.1094,459.8984 Q1160.2969,459.7891 1160.5156,459.7891 Q1160.8906,459.7891 1161.125,460.0547 Q1161.3594,460.3047 1161.3594,460.9141 L1161.3594,462.3672 Q1161.3594,462.9766 1161.125,463.2422 Q1160.8906,463.5078 1160.5156,463.5078 Q1160.1719,463.5078 1159.9688,463.3047 Q1159.7656,463.1172 1159.6563,462.6016 Q1159.6094,462.2422 1159.4219,462.0547 Q1159.0938,461.6797 1158.4844,461.4609 Q1157.875,461.2422 1157.25,461.2422 Q1156.4844,461.2422 1155.8438,461.5703 Q1155.2188,461.8984 1154.7188,462.6484 Q1154.2344,463.3984 1154.2344,464.4297 L1154.2344,465.5234 Q1154.2344,466.7578 1155.125,467.5859 Q1156.0156,468.3984 1157.6094,468.3984 Q1158.5469,468.3984 1159.2031,468.1484 Q1159.5938,467.9922 1160.0156,467.5547 Q1160.2813,467.2891 1160.4219,467.2109 Q1160.5781,467.1328 1160.7813,467.1328 Q1161.1094,467.1328 1161.3594,467.3984 Q1161.625,467.6484 1161.625,467.9922 Q1161.625,468.3359 1161.2813,468.7422 Q1160.7813,469.3203 1159.9844,469.6484 Q1158.9063,470.1016 1157.6094,470.1016 Q1156.0938,470.1016 1154.8906,469.4766 Q1153.9063,468.9766 1153.2188,467.9141 Q1152.5313,466.8359 1152.5313,465.5547 L1152.5313,464.3984 Q1152.5313,463.0703 1153.1406,461.9297 Q1153.7656,460.7734 1154.8594,460.1641 Q1155.9531,459.5391 1157.1875,459.5391 Q1157.9219,459.5391 1158.5625,459.7109 Q1159.2188,459.8672 1159.7656,460.2266 Z " fill="#000000"/><text fill="#000000" font-family="sans-serif" font-size="12" font-style="italic" lengthAdjust="spacing" textLength="67.377" x="1202.6802" y="460.457">&#171;DataStore&#187;</text><text fill="#000000" font-family="sans-serif" font-size="14" lengthAdjust="spacing" textLength="130.7373" x="1171" y="477.627">PreferencesManager</text><line style="stroke:#181818;stroke-width:0.5;" x1="1143" x2="1303.7373" y1="485.7031" y2="485.7031"/><line style="stroke:#181818;stroke-width:0.5;" x1="1143" x2="1303.7373" y1="493.7031" y2="493.7031"/></g><!--class RouteDataLoader--><g class="entity" data-qualified-name="data.local.RouteDataLoader" data-source-line="58" id="ent0037"><rect fill="#F1F1F1" height="48" rx="2.5" ry="2.5" style="stroke:#181818;stroke-width:0.5;" width="142.5234" x="964" y="448.5"/><ellipse cx="979" cy="464.5" fill="#ADD1B2" rx="11" ry="11" style="stroke:#181818;stroke-width:1;"/><path d="M981.7656,460.375 Q981.9219,460.1563 982.1094,460.0469 Q982.2969,459.9375 982.5156,459.9375 Q982.8906,459.9375 983.125,460.2031 Q983.3594,460.4531 983.3594,461.0625 L983.3594,462.5156 Q983.3594,463.125 983.125,463.3906 Q982.8906,463.6563 982.5156,463.6563 Q982.1719,463.6563 981.9688,463.4531 Q981.7656,463.2656 981.6563,462.75 Q981.6094,462.3906 981.4219,462.2031 Q981.0938,461.8281 980.4844,461.6094 Q979.875,461.3906 979.25,461.3906 Q978.4844,461.3906 977.8438,461.7188 Q977.2188,462.0469 976.7188,462.7969 Q976.2344,463.5469 976.2344,464.5781 L976.2344,465.6719 Q976.2344,466.9063 977.125,467.7344 Q978.0156,468.5469 979.6094,468.5469 Q980.5469,468.5469 981.2031,468.2969 Q981.5938,468.1406 982.0156,467.7031 Q982.2813,467.4375 982.4219,467.3594 Q982.5781,467.2813 982.7813,467.2813 Q983.1094,467.2813 983.3594,467.5469 Q983.625,467.7969 983.625,468.1406 Q983.625,468.4844 983.2813,468.8906 Q982.7813,469.4688 981.9844,469.7969 Q980.9063,470.25 979.6094,470.25 Q978.0938,470.25 976.8906,469.625 Q975.9063,469.125 975.2188,468.0625 Q974.5313,466.9844 974.5313,465.7031 L974.5313,464.5469 Q974.5313,463.2188 975.1406,462.0781 Q975.7656,460.9219 976.8594,460.3125 Q977.9531,459.6875 979.1875,459.6875 Q979.9219,459.6875 980.5625,459.8594 Q981.2188,460.0156 981.7656,460.375 Z " fill="#000000"/><text fill="#000000" font-family="sans-serif" font-size="14" lengthAdjust="spacing" textLength="110.5234" x="993" y="470.2285">RouteDataLoader</text><line style="stroke:#181818;stroke-width:0.5;" x1="965" x2="1105.5234" y1="480.5" y2="480.5"/><line style="stroke:#181818;stroke-width:0.5;" x1="965" x2="1105.5234" y1="488.5" y2="488.5"/></g><!--class RouteMapper--><g class="entity" data-qualified-name="data.mapper.RouteMapper" data-source-line="62" id="ent0039"><rect fill="#F1F1F1" height="58.7031" rx="2.5" ry="2.5" style="stroke:#181818;stroke-width:0.5;" width="116.8271" x="527" y="443"/><ellipse cx="542" cy="464.3516" fill="#ADD1B2" rx="11" ry="11" style="stroke:#181818;stroke-width:1;"/><path d="M544.7656,460.2266 Q544.9219,460.0078 545.1094,459.8984 Q545.2969,459.7891 545.5156,459.7891 Q545.8906,459.7891 546.125,460.0547 Q546.3594,460.3047 546.3594,460.9141 L546.3594,462.3672 Q546.3594,462.9766 546.125,463.2422 Q545.8906,463.5078 545.5156,463.5078 Q545.1719,463.5078 544.9688,463.3047 Q544.7656,463.1172 544.6563,462.6016 Q544.6094,462.2422 544.4219,462.0547 Q544.0938,461.6797 543.4844,461.4609 Q542.875,461.2422 542.25,461.2422 Q541.4844,461.2422 540.8438,461.5703 Q540.2188,461.8984 539.7188,462.6484 Q539.2344,463.3984 539.2344,464.4297 L539.2344,465.5234 Q539.2344,466.7578 540.125,467.5859 Q541.0156,468.3984 542.6094,468.3984 Q543.5469,468.3984 544.2031,468.1484 Q544.5938,467.9922 545.0156,467.5547 Q545.2813,467.2891 545.4219,467.2109 Q545.5781,467.1328 545.7813,467.1328 Q546.1094,467.1328 546.3594,467.3984 Q546.625,467.6484 546.625,467.9922 Q546.625,468.3359 546.2813,468.7422 Q545.7813,469.3203 544.9844,469.6484 Q543.9063,470.1016 542.6094,470.1016 Q541.0938,470.1016 539.8906,469.4766 Q538.9063,468.9766 538.2188,467.9141 Q537.5313,466.8359 537.5313,465.5547 L537.5313,464.3984 Q537.5313,463.0703 538.1406,461.9297 Q538.7656,460.7734 539.8594,460.1641 Q540.9531,459.5391 542.1875,459.5391 Q542.9219,459.5391 543.5625,459.7109 Q544.2188,459.8672 544.7656,460.2266 Z " fill="#000000"/><text fill="#000000" font-family="sans-serif" font-size="12" font-style="italic" lengthAdjust="spacing" textLength="40.6875" x="578.0698" y="460.457">&#171;utility&#187;</text><text fill="#000000" font-family="sans-serif" font-size="14" lengthAdjust="spacing" textLength="84.8271" x="556" y="477.627">RouteMapper</text><line style="stroke:#181818;stroke-width:0.5;" x1="528" x2="642.8271" y1="485.7031" y2="485.7031"/><line style="stroke:#181818;stroke-width:0.5;" x1="528" x2="642.8271" y1="493.7031" y2="493.7031"/></g><!--class YandexAuthManager--><g class="entity" data-qualified-name="data.auth.YandexAuthManager" data-source-line="66" id="ent0041"><rect fill="#F1F1F1" height="48" rx="2.5" ry="2.5" style="stroke:#181818;stroke-width:0.5;" width="163.5371" x="1115.5" y="304.5"/><ellipse cx="1130.5" cy="320.5" fill="#ADD1B2" rx="11" ry="11" style="stroke:#181818;stroke-width:1;"/><path d="M1133.2656,316.375 Q1133.4219,316.1563 1133.6094,316.0469 Q1133.7969,315.9375 1134.0156,315.9375 Q1134.3906,315.9375 1134.625,316.2031 Q1134.8594,316.4531 1134.8594,317.0625 L1134.8594,318.5156 Q1134.8594,319.125 1134.625,319.3906 Q1134.3906,319.6563 1134.0156,319.6563 Q1133.6719,319.6563 1133.4688,319.4531 Q1133.2656,319.2656 1133.1563,318.75 Q1133.1094,318.3906 1132.9219,318.2031 Q1132.5938,317.8281 1131.9844,317.6094 Q1131.375,317.3906 1130.75,317.3906 Q1129.9844,317.3906 1129.3438,317.7188 Q1128.7188,318.0469 1128.2188,318.7969 Q1127.7344,319.5469 1127.7344,320.5781 L1127.7344,321.6719 Q1127.7344,322.9063 1128.625,323.7344 Q1129.5156,324.5469 1131.1094,324.5469 Q1132.0469,324.5469 1132.7031,324.2969 Q1133.0938,324.1406 1133.5156,323.7031 Q1133.7813,323.4375 1133.9219,323.3594 Q1134.0781,323.2813 1134.2813,323.2813 Q1134.6094,323.2813 1134.8594,323.5469 Q1135.125,323.7969 1135.125,324.1406 Q1135.125,324.4844 1134.7813,324.8906 Q1134.2813,325.4688 1133.4844,325.7969 Q1132.4063,326.25 1131.1094,326.25 Q1129.5938,326.25 1128.3906,325.625 Q1127.4063,325.125 1126.7188,324.0625 Q1126.0313,322.9844 1126.0313,321.7031 L1126.0313,320.5469 Q1126.0313,319.2188 1126.6406,318.0781 Q1127.2656,316.9219 1128.3594,316.3125 Q1129.4531,315.6875 1130.6875,315.6875 Q1131.4219,315.6875 1132.0625,315.8594 Q1132.7188,316.0156 1133.2656,316.375 Z " fill="#000000"/><text fill="#000000" font-family="sans-serif" font-size="14" lengthAdjust="spacing" textLength="131.5371" x="1144.5" y="326.2285">YandexAuthManager</text><line style="stroke:#181818;stroke-width:0.5;" x1="1116.5" x2="1278.0371" y1="336.5" y2="336.5"/><line style="stroke:#181818;stroke-width:0.5;" x1="1116.5" x2="1278.0371" y1="344.5" y2="344.5"/></g><!--class LocationManager--><g class="entity" data-qualified-name="util.LocationManager" data-source-line="71" id="ent0043"><rect fill="#F1F1F1" height="48" rx="2.5" ry="2.5" style="stroke:#181818;stroke-width:0.5;" width="140.1855" x="1691.5" y="304.5"/><ellipse cx="1706.5" cy="320.5" fill="#ADD1B2" rx="11" ry="11" style="stroke:#181818;stroke-width:1;"/><path d="M1709.2656,316.375 Q1709.4219,316.1563 1709.6094,316.0469 Q1709.7969,315.9375 1710.0156,315.9375 Q1710.3906,315.9375 1710.625,316.2031 Q1710.8594,316.4531 1710.8594,317.0625 L1710.8594,318.5156 Q1710.8594,319.125 1710.625,319.3906 Q1710.3906,319.6563 1710.0156,319.6563 Q1709.6719,319.6563 1709.4688,319.4531 Q1709.2656,319.2656 1709.1563,318.75 Q1709.1094,318.3906 1708.9219,318.2031 Q1708.5938,317.8281 1707.9844,317.6094 Q1707.375,317.3906 1706.75,317.3906 Q1705.9844,317.3906 1705.3438,317.7188 Q1704.7188,318.0469 1704.2188,318.7969 Q1703.7344,319.5469 1703.7344,320.5781 L1703.7344,321.6719 Q1703.7344,322.9063 1704.625,323.7344 Q1705.5156,324.5469 1707.1094,324.5469 Q1708.0469,324.5469 1708.7031,324.2969 Q1709.0938,324.1406 1709.5156,323.7031 Q1709.7813,323.4375 1709.9219,323.3594 Q1710.0781,323.2813 1710.2813,323.2813 Q1710.6094,323.2813 1710.8594,323.5469 Q1711.125,323.7969 1711.125,324.1406 Q1711.125,324.4844 1710.7813,324.8906 Q1710.2813,325.4688 1709.4844,325.7969 Q1708.4063,326.25 1707.1094,326.25 Q1705.5938,326.25 1704.3906,325.625 Q1703.4063,325.125 1702.7188,324.0625 Q1702.0313,322.9844 1702.0313,321.7031 L1702.0313,320.5469 Q1702.0313,319.2188 1702.6406,318.0781 Q1703.2656,316.9219 1704.3594,316.3125 Q1705.4531,315.6875 1706.6875,315.6875 Q1707.4219,315.6875 1708.0625,315.8594 Q1708.7188,316.0156 1709.2656,316.375 Z " fill="#000000"/><text fill="#000000" font-family="sans-serif" font-size="14" lengthAdjust="spacing" textLength="108.1855" x="1720.5" y="326.2285">LocationManager</text><line style="stroke:#181818;stroke-width:0.5;" x1="1692.5" x2="1830.6855" y1="336.5" y2="336.5"/><line style="stroke:#181818;stroke-width:0.5;" x1="1692.5" x2="1830.6855" y1="344.5" y2="344.5"/></g><!--class AudioPlayer--><g class="entity" data-qualified-name="util.AudioPlayer" data-source-line="72" id="ent0044"><rect fill="#F1F1F1" height="48" rx="2.5" ry="2.5" style="stroke:#181818;stroke-width:0.5;" width="107.4893" x="1867" y="304.5"/><ellipse cx="1882" cy="320.5" fill="#ADD1B2" rx="11" ry="11" style="stroke:#181818;stroke-width:1;"/><path d="M1884.7656,316.375 Q1884.9219,316.1563 1885.1094,316.0469 Q1885.2969,315.9375 1885.5156,315.9375 Q1885.8906,315.9375 1886.125,316.2031 Q1886.3594,316.4531 1886.3594,317.0625 L1886.3594,318.5156 Q1886.3594,319.125 1886.125,319.3906 Q1885.8906,319.6563 1885.5156,319.6563 Q1885.1719,319.6563 1884.9688,319.4531 Q1884.7656,319.2656 1884.6563,318.75 Q1884.6094,318.3906 1884.4219,318.2031 Q1884.0938,317.8281 1883.4844,317.6094 Q1882.875,317.3906 1882.25,317.3906 Q1881.4844,317.3906 1880.8438,317.7188 Q1880.2188,318.0469 1879.7188,318.7969 Q1879.2344,319.5469 1879.2344,320.5781 L1879.2344,321.6719 Q1879.2344,322.9063 1880.125,323.7344 Q1881.0156,324.5469 1882.6094,324.5469 Q1883.5469,324.5469 1884.2031,324.2969 Q1884.5938,324.1406 1885.0156,323.7031 Q1885.2813,323.4375 1885.4219,323.3594 Q1885.5781,323.2813 1885.7813,323.2813 Q1886.1094,323.2813 1886.3594,323.5469 Q1886.625,323.7969 1886.625,324.1406 Q1886.625,324.4844 1886.2813,324.8906 Q1885.7813,325.4688 1884.9844,325.7969 Q1883.9063,326.25 1882.6094,326.25 Q1881.0938,326.25 1879.8906,325.625 Q1878.9063,325.125 1878.2188,324.0625 Q1877.5313,322.9844 1877.5313,321.7031 L1877.5313,320.5469 Q1877.5313,319.2188 1878.1406,318.0781 Q1878.7656,316.9219 1879.8594,316.3125 Q1880.9531,315.6875 1882.1875,315.6875 Q1882.9219,315.6875 1883.5625,315.8594 Q1884.2188,316.0156 1884.7656,316.375 Z " fill="#000000"/><text fill="#000000" font-family="sans-serif" font-size="14" lengthAdjust="spacing" textLength="75.4893" x="1896" y="326.2285">AudioPlayer</text><line style="stroke:#181818;stroke-width:0.5;" x1="1868" x2="1973.4893" y1="336.5" y2="336.5"/><line style="stroke:#181818;stroke-width:0.5;" x1="1868" x2="1973.4893" y1="344.5" y2="344.5"/></g><!--class LocationUtils--><g class="entity" data-qualified-name="util.LocationUtils" data-source-line="73" id="ent0045"><rect fill="#F1F1F1" height="58.7031" rx="2.5" ry="2.5" style="stroke:#181818;stroke-width:0.5;" width="112.1514" x="2009.5" y="299"/><ellipse cx="2024.5" cy="320.3516" fill="#ADD1B2" rx="11" ry="11" style="stroke:#181818;stroke-width:1;"/><path d="M2027.2656,316.2266 Q2027.4219,316.0078 2027.6094,315.8984 Q2027.7969,315.7891 2028.0156,315.7891 Q2028.3906,315.7891 2028.625,316.0547 Q2028.8594,316.3047 2028.8594,316.9141 L2028.8594,318.3672 Q2028.8594,318.9766 2028.625,319.2422 Q2028.3906,319.5078 2028.0156,319.5078 Q2027.6719,319.5078 2027.4688,319.3047 Q2027.2656,319.1172 2027.1563,318.6016 Q2027.1094,318.2422 2026.9219,318.0547 Q2026.5938,317.6797 2025.9844,317.4609 Q2025.375,317.2422 2024.75,317.2422 Q2023.9844,317.2422 2023.3438,317.5703 Q2022.7188,317.8984 2022.2188,318.6484 Q2021.7344,319.3984 2021.7344,320.4297 L2021.7344,321.5234 Q2021.7344,322.7578 2022.625,323.5859 Q2023.5156,324.3984 2025.1094,324.3984 Q2026.0469,324.3984 2026.7031,324.1484 Q2027.0938,323.9922 2027.5156,323.5547 Q2027.7813,323.2891 2027.9219,323.2109 Q2028.0781,323.1328 2028.2813,323.1328 Q2028.6094,323.1328 2028.8594,323.3984 Q2029.125,323.6484 2029.125,323.9922 Q2029.125,324.3359 2028.7813,324.7422 Q2028.2813,325.3203 2027.4844,325.6484 Q2026.4063,326.1016 2025.1094,326.1016 Q2023.5938,326.1016 2022.3906,325.4766 Q2021.4063,324.9766 2020.7188,323.9141 Q2020.0313,322.8359 2020.0313,321.5547 L2020.0313,320.3984 Q2020.0313,319.0703 2020.6406,317.9297 Q2021.2656,316.7734 2022.3594,316.1641 Q2023.4531,315.5391 2024.6875,315.5391 Q2025.4219,315.5391 2026.0625,315.7109 Q2026.7188,315.8672 2027.2656,316.2266 Z " fill="#000000"/><text fill="#000000" font-family="sans-serif" font-size="12" font-style="italic" lengthAdjust="spacing" textLength="40.6875" x="2058.2319" y="316.457">&#171;utility&#187;</text><text fill="#000000" font-family="sans-serif" font-size="14" lengthAdjust="spacing" textLength="80.1514" x="2038.5" y="333.627">LocationUtils</text><line style="stroke:#181818;stroke-width:0.5;" x1="2010.5" x2="2120.6514" y1="341.7031" y2="341.7031"/><line style="stroke:#181818;stroke-width:0.5;" x1="2010.5" x2="2120.6514" y1="349.7031" y2="349.7031"/></g><!--class StorageUrlHelper--><g class="entity" data-qualified-name="util.StorageUrlHelper" data-source-line="74" id="ent0046"><rect fill="#F1F1F1" height="58.7031" rx="2.5" ry="2.5" style="stroke:#181818;stroke-width:0.5;" width="140.1582" x="1516.5" y="299"/><ellipse cx="1531.5" cy="320.3516" fill="#ADD1B2" rx="11" ry="11" style="stroke:#181818;stroke-width:1;"/><path d="M1534.2656,316.2266 Q1534.4219,316.0078 1534.6094,315.8984 Q1534.7969,315.7891 1535.0156,315.7891 Q1535.3906,315.7891 1535.625,316.0547 Q1535.8594,316.3047 1535.8594,316.9141 L1535.8594,318.3672 Q1535.8594,318.9766 1535.625,319.2422 Q1535.3906,319.5078 1535.0156,319.5078 Q1534.6719,319.5078 1534.4688,319.3047 Q1534.2656,319.1172 1534.1563,318.6016 Q1534.1094,318.2422 1533.9219,318.0547 Q1533.5938,317.6797 1532.9844,317.4609 Q1532.375,317.2422 1531.75,317.2422 Q1530.9844,317.2422 1530.3438,317.5703 Q1529.7188,317.8984 1529.2188,318.6484 Q1528.7344,319.3984 1528.7344,320.4297 L1528.7344,321.5234 Q1528.7344,322.7578 1529.625,323.5859 Q1530.5156,324.3984 1532.1094,324.3984 Q1533.0469,324.3984 1533.7031,324.1484 Q1534.0938,323.9922 1534.5156,323.5547 Q1534.7813,323.2891 1534.9219,323.2109 Q1535.0781,323.1328 1535.2813,323.1328 Q1535.6094,323.1328 1535.8594,323.3984 Q1536.125,323.6484 1536.125,323.9922 Q1536.125,324.3359 1535.7813,324.7422 Q1535.2813,325.3203 1534.4844,325.6484 Q1533.4063,326.1016 1532.1094,326.1016 Q1530.5938,326.1016 1529.3906,325.4766 Q1528.4063,324.9766 1527.7188,323.9141 Q1527.0313,322.8359 1527.0313,321.5547 L1527.0313,320.3984 Q1527.0313,319.0703 1527.6406,317.9297 Q1528.2656,316.7734 1529.3594,316.1641 Q1530.4531,315.5391 1531.6875,315.5391 Q1532.4219,315.5391 1533.0625,315.7109 Q1533.7188,315.8672 1534.2656,316.2266 Z " fill="#000000"/><text fill="#000000" font-family="sans-serif" font-size="12" font-style="italic" lengthAdjust="spacing" textLength="40.6875" x="1579.2354" y="316.457">&#171;utility&#187;</text><text fill="#000000" font-family="sans-serif" font-size="14" lengthAdjust="spacing" textLength="108.1582" x="1545.5" y="333.627">StorageUrlHelper</text><line style="stroke:#181818;stroke-width:0.5;" x1="1517.5" x2="1655.6582" y1="341.7031" y2="341.7031"/><line style="stroke:#181818;stroke-width:0.5;" x1="1517.5" x2="1655.6582" y1="349.7031" y2="349.7031"/></g><!--class Constants--><g class="entity" data-qualified-name="util.Constants" data-source-line="75" id="ent0047"><rect fill="#F1F1F1" height="58.7031" rx="2.5" ry="2.5" style="stroke:#181818;stroke-width:0.5;" width="95.0342" x="1386" y="299"/><ellipse cx="1401" cy="320.3516" fill="#ADD1B2" rx="11" ry="11" style="stroke:#181818;stroke-width:1;"/><path d="M1403.7656,316.2266 Q1403.9219,316.0078 1404.1094,315.8984 Q1404.2969,315.7891 1404.5156,315.7891 Q1404.8906,315.7891 1405.125,316.0547 Q1405.3594,316.3047 1405.3594,316.9141 L1405.3594,318.3672 Q1405.3594,318.9766 1405.125,319.2422 Q1404.8906,319.5078 1404.5156,319.5078 Q1404.1719,319.5078 1403.9688,319.3047 Q1403.7656,319.1172 1403.6563,318.6016 Q1403.6094,318.2422 1403.4219,318.0547 Q1403.0938,317.6797 1402.4844,317.4609 Q1401.875,317.2422 1401.25,317.2422 Q1400.4844,317.2422 1399.8438,317.5703 Q1399.2188,317.8984 1398.7188,318.6484 Q1398.2344,319.3984 1398.2344,320.4297 L1398.2344,321.5234 Q1398.2344,322.7578 1399.125,323.5859 Q1400.0156,324.3984 1401.6094,324.3984 Q1402.5469,324.3984 1403.2031,324.1484 Q1403.5938,323.9922 1404.0156,323.5547 Q1404.2813,323.2891 1404.4219,323.2109 Q1404.5781,323.1328 1404.7813,323.1328 Q1405.1094,323.1328 1405.3594,323.3984 Q1405.625,323.6484 1405.625,323.9922 Q1405.625,324.3359 1405.2813,324.7422 Q1404.7813,325.3203 1403.9844,325.6484 Q1402.9063,326.1016 1401.6094,326.1016 Q1400.0938,326.1016 1398.8906,325.4766 Q1397.9063,324.9766 1397.2188,323.9141 Q1396.5313,322.8359 1396.5313,321.5547 L1396.5313,320.3984 Q1396.5313,319.0703 1397.1406,317.9297 Q1397.7656,316.7734 1398.8594,316.1641 Q1399.9531,315.5391 1401.1875,315.5391 Q1401.9219,315.5391 1402.5625,315.7109 Q1403.2188,315.8672 1403.7656,316.2266 Z " fill="#000000"/><text fill="#000000" font-family="sans-serif" font-size="12" font-style="italic" lengthAdjust="spacing" textLength="40.6875" x="1426.1733" y="316.457">&#171;utility&#187;</text><text fill="#000000" font-family="sans-serif" font-size="14" lengthAdjust="spacing" textLength="63.0342" x="1415" y="333.627">Constants</text><line style="stroke:#181818;stroke-width:0.5;" x1="1387" x2="1480.0342" y1="341.7031" y2="341.7031"/><line style="stroke:#181818;stroke-width:0.5;" x1="1387" x2="1480.0342" y1="349.7031" y2="349.7031"/></g><!--class YandexPushService--><g class="entity" data-qualified-name="service.YandexPushService" data-source-line="79" id="ent0049"><rect fill="#F1F1F1" height="48" rx="2.5" ry="2.5" style="stroke:#181818;stroke-width:0.5;" width="158.0752" x="2515.5" y="92.5"/><ellipse cx="2530.5" cy="108.5" fill="#ADD1B2" rx="11" ry="11" style="stroke:#181818;stroke-width:1;"/><path d="M2533.2656,104.375 Q2533.4219,104.1563 2533.6094,104.0469 Q2533.7969,103.9375 2534.0156,103.9375 Q2534.3906,103.9375 2534.625,104.2031 Q2534.8594,104.4531 2534.8594,105.0625 L2534.8594,106.5156 Q2534.8594,107.125 2534.625,107.3906 Q2534.3906,107.6563 2534.0156,107.6563 Q2533.6719,107.6563 2533.4688,107.4531 Q2533.2656,107.2656 2533.1563,106.75 Q2533.1094,106.3906 2532.9219,106.2031 Q2532.5938,105.8281 2531.9844,105.6094 Q2531.375,105.3906 2530.75,105.3906 Q2529.9844,105.3906 2529.3438,105.7188 Q2528.7188,106.0469 2528.2188,106.7969 Q2527.7344,107.5469 2527.7344,108.5781 L2527.7344,109.6719 Q2527.7344,110.9063 2528.625,111.7344 Q2529.5156,112.5469 2531.1094,112.5469 Q2532.0469,112.5469 2532.7031,112.2969 Q2533.0938,112.1406 2533.5156,111.7031 Q2533.7813,111.4375 2533.9219,111.3594 Q2534.0781,111.2813 2534.2813,111.2813 Q2534.6094,111.2813 2534.8594,111.5469 Q2535.125,111.7969 2535.125,112.1406 Q2535.125,112.4844 2534.7813,112.8906 Q2534.2813,113.4688 2533.4844,113.7969 Q2532.4063,114.25 2531.1094,114.25 Q2529.5938,114.25 2528.3906,113.625 Q2527.4063,113.125 2526.7188,112.0625 Q2526.0313,110.9844 2526.0313,109.7031 L2526.0313,108.5469 Q2526.0313,107.2188 2526.6406,106.0781 Q2527.2656,104.9219 2528.3594,104.3125 Q2529.4531,103.6875 2530.6875,103.6875 Q2531.4219,103.6875 2532.0625,103.8594 Q2532.7188,104.0156 2533.2656,104.375 Z " fill="#000000"/><text fill="#000000" font-family="sans-serif" font-size="14" lengthAdjust="spacing" textLength="126.0752" x="2544.5" y="114.2285">YandexPushService</text><line style="stroke:#181818;stroke-width:0.5;" x1="2516.5" x2="2672.5752" y1="124.5" y2="124.5"/><line style="stroke:#181818;stroke-width:0.5;" x1="2516.5" x2="2672.5752" y1="132.5" y2="132.5"/></g><!--class OkHttpClient--><g class="entity" data-qualified-name="OkHttpClient" data-source-line="112" id="ent0072"><rect fill="#F1F1F1" height="48" rx="2.5" ry="2.5" style="stroke:#181818;stroke-width:0.5;" width="111.3584" x="7" y="448.5"/><ellipse cx="22" cy="464.5" fill="#ADD1B2" rx="11" ry="11" style="stroke:#181818;stroke-width:1;"/><path d="M24.7656,460.375 Q24.9219,460.1563 25.1094,460.0469 Q25.2969,459.9375 25.5156,459.9375 Q25.8906,459.9375 26.125,460.2031 Q26.3594,460.4531 26.3594,461.0625 L26.3594,462.5156 Q26.3594,463.125 26.125,463.3906 Q25.8906,463.6563 25.5156,463.6563 Q25.1719,463.6563 24.9688,463.4531 Q24.7656,463.2656 24.6563,462.75 Q24.6094,462.3906 24.4219,462.2031 Q24.0938,461.8281 23.4844,461.6094 Q22.875,461.3906 22.25,461.3906 Q21.4844,461.3906 20.8438,461.7188 Q20.2188,462.0469 19.7188,462.7969 Q19.2344,463.5469 19.2344,464.5781 L19.2344,465.6719 Q19.2344,466.9063 20.125,467.7344 Q21.0156,468.5469 22.6094,468.5469 Q23.5469,468.5469 24.2031,468.2969 Q24.5938,468.1406 25.0156,467.7031 Q25.2813,467.4375 25.4219,467.3594 Q25.5781,467.2813 25.7813,467.2813 Q26.1094,467.2813 26.3594,467.5469 Q26.625,467.7969 26.625,468.1406 Q26.625,468.4844 26.2813,468.8906 Q25.7813,469.4688 24.9844,469.7969 Q23.9063,470.25 22.6094,470.25 Q21.0938,470.25 19.8906,469.625 Q18.9063,469.125 18.2188,468.0625 Q17.5313,466.9844 17.5313,465.7031 L17.5313,464.5469 Q17.5313,463.2188 18.1406,462.0781 Q18.7656,460.9219 19.8594,460.3125 Q20.9531,459.6875 22.1875,459.6875 Q22.9219,459.6875 23.5625,459.8594 Q24.2188,460.0156 24.7656,460.375 Z " fill="#000000"/><text fill="#000000" font-family="sans-serif" font-size="14" lengthAdjust="spacing" textLength="79.3584" x="36" y="470.2285">OkHttpClient</text><line style="stroke:#181818;stroke-width:0.5;" x1="8" x2="117.3584" y1="480.5" y2="480.5"/><line style="stroke:#181818;stroke-width:0.5;" x1="8" x2="117.3584" y1="488.5" y2="488.5"/></g><!--class NotificationManager--><g class="entity" data-qualified-name="NotificationManager" data-source-line="128" id="ent0082"><rect fill="#F1F1F1" height="48" rx="2.5" ry="2.5" style="stroke:#181818;stroke-width:0.5;" width="156.5098" x="2516" y="304.5"/><ellipse cx="2531" cy="320.5" fill="#ADD1B2" rx="11" ry="11" style="stroke:#181818;stroke-width:1;"/><path d="M2533.7656,316.375 Q2533.9219,316.1563 2534.1094,316.0469 Q2534.2969,315.9375 2534.5156,315.9375 Q2534.8906,315.9375 2535.125,316.2031 Q2535.3594,316.4531 2535.3594,317.0625 L2535.3594,318.5156 Q2535.3594,319.125 2535.125,319.3906 Q2534.8906,319.6563 2534.5156,319.6563 Q2534.1719,319.6563 2533.9688,319.4531 Q2533.7656,319.2656 2533.6563,318.75 Q2533.6094,318.3906 2533.4219,318.2031 Q2533.0938,317.8281 2532.4844,317.6094 Q2531.875,317.3906 2531.25,317.3906 Q2530.4844,317.3906 2529.8438,317.7188 Q2529.2188,318.0469 2528.7188,318.7969 Q2528.2344,319.5469 2528.2344,320.5781 L2528.2344,321.6719 Q2528.2344,322.9063 2529.125,323.7344 Q2530.0156,324.5469 2531.6094,324.5469 Q2532.5469,324.5469 2533.2031,324.2969 Q2533.5938,324.1406 2534.0156,323.7031 Q2534.2813,323.4375 2534.4219,323.3594 Q2534.5781,323.2813 2534.7813,323.2813 Q2535.1094,323.2813 2535.3594,323.5469 Q2535.625,323.7969 2535.625,324.1406 Q2535.625,324.4844 2535.2813,324.8906 Q2534.7813,325.4688 2533.9844,325.7969 Q2532.9063,326.25 2531.6094,326.25 Q2530.0938,326.25 2528.8906,325.625 Q2527.9063,325.125 2527.2188,324.0625 Q2526.5313,322.9844 2526.5313,321.7031 L2526.5313,320.5469 Q2526.5313,319.2188 2527.1406,318.0781 Q2527.7656,316.9219 2528.8594,316.3125 Q2529.9531,315.6875 2531.1875,315.6875 Q2531.9219,315.6875 2532.5625,315.8594 Q2533.2188,316.0156 2533.7656,316.375 Z " fill="#000000"/><text fill="#000000" font-family="sans-serif" font-size="14" lengthAdjust="spacing" textLength="124.5098" x="2545" y="326.2285">NotificationManager</text><line style="stroke:#181818;stroke-width:0.5;" x1="2517" x2="2671.5098" y1="336.5" y2="336.5"/><line style="stroke:#181818;stroke-width:0.5;" x1="2517" x2="2671.5098" y1="344.5" y2="344.5"/></g><!--reverse link Route to Attraction--><g class="link" data-entity-1="ent0003" data-entity-2="ent0005" data-link-type="aggregation" data-source-line="10" id="lnk7"><path codeLine="10" d="M1536.5572,691.0928 C1533.0772,715.8128 1529.28,742.86 1525.79,767.64" fill="none" id="Route-backto-Attraction" style="stroke:#181818;stroke-width:1;"/><polygon fill="none" points="1538.23,679.21,1533.4326,684.5938,1536.5572,691.0928,1541.3545,685.709,1538.23,679.21" style="stroke:#181818;stroke-width:1;"/><text fill="#000000" font-family="sans-serif" font-size="13" lengthAdjust="spacing" textLength="59.9727" x="1533.5" y="728.9951">attractions</text><text fill="#000000" font-family="sans-serif" font-size="13" lengthAdjust="spacing" textLength="7.23" x="1529.5642" y="700.5992">1</text><text fill="#000000" font-family="sans-serif" font-size="13" lengthAdjust="spacing" textLength="5.0591" x="1520.973" y="757.2902">*</text></g><!--reverse link RouteEntity to AttractionEntity--><g class="link" data-entity-1="ent0032" data-entity-2="ent0033" data-link-type="dependency" data-source-line="53" id="lnk34"><path codeLine="53" d="M338.3181,690.6101 C340.1881,713.5201 342.3,739.51 344.17,762.41" fill="none" id="RouteEntity-backto-AttractionEntity" style="stroke:#181818;stroke-width:1;"/><polygon fill="#181818" points="337.83,684.63,334.5754,693.9256,338.2368,689.6134,342.5489,693.2748,337.83,684.63" style="stroke:#181818;stroke-width:1;"/><text fill="#000000" font-family="sans-serif" font-size="13" lengthAdjust="spacing" textLength="60.6963" x="343.5" y="728.9951">FK routeId</text><text fill="#000000" font-family="sans-serif" font-size="13" lengthAdjust="spacing" textLength="7.23" x="330.5857" y="705.5974">1</text><text fill="#000000" font-family="sans-serif" font-size="13" lengthAdjust="spacing" textLength="5.0591" x="338.1033" y="751.7532">*</text></g><!--link MapViewModel to RouteRepository--><g class="link" data-entity-1="ent0009" data-entity-2="ent0020" data-link-type="dependency" data-source-line="83" id="lnk50"><path codeLine="83" d="M1572.56,140.65 C1557.71,158.87 1534.33,182.98 1507.5,194 C1477.01,206.52 943.71,195.73 914.5,211 C876.4,230.92 853.3302,270.7557 840.5502,298.6357" fill="none" id="MapViewModel-to-RouteRepository" style="stroke:#181818;stroke-width:1;"/><polygon fill="#181818" points="838.05,304.09,845.4365,297.5754,840.1335,299.5448,838.1641,294.2418,838.05,304.09" style="stroke:#181818;stroke-width:1;"/></g><!--link MapViewModel to LocationManager--><g class="link" data-entity-1="ent0009" data-entity-2="ent0043" data-link-type="dependency" data-source-line="84" id="lnk51"><path codeLine="84" d="M1611.81,140.77 C1629.34,159.35 1654.12,186.29 1674.5,211 C1700.36,242.35 1724.6162,275.465 1741.6462,299.345" fill="none" id="MapViewModel-to-LocationManager" style="stroke:#181818;stroke-width:1;"/><polygon fill="#181818" points="1745.13,304.23,1743.1611,294.58,1742.2269,300.1591,1736.6477,299.225,1745.13,304.23" style="stroke:#181818;stroke-width:1;"/></g><!--link MapViewModel to AudioPlayer--><g class="link" data-entity-1="ent0009" data-entity-2="ent0044" data-link-type="dependency" data-source-line="85" id="lnk52"><path codeLine="85" d="M1606.94,140.54 C1621.92,158.45 1645.22,182.17 1671.5,194 C1743.97,226.62 1782.14,168.83 1849.5,211 C1883.63,232.37 1901.7444,271.0716 1911.4044,298.4616" fill="none" id="MapViewModel-to-AudioPlayer" style="stroke:#181818;stroke-width:1;"/><polygon fill="#181818" points="1913.4,304.12,1914.1788,294.302,1911.737,299.4047,1906.6343,296.9628,1913.4,304.12" style="stroke:#181818;stroke-width:1;"/></g><!--link MapViewModel to PreferencesManager--><g class="link" data-entity-1="ent0009" data-entity-2="ent0036" data-link-type="dependency" data-source-line="86" id="lnk53"><path codeLine="86" d="M1571.67,140.71 C1556.62,158.47 1533.43,181.9 1507.5,194 C1451.5,220.13 1418.98,173.97 1369.5,211 C1303.2,260.62 1338.28,311.1 1295.5,382 C1282.42,403.68 1268.5239,421.3496 1253.8839,438.2096" fill="none" id="MapViewModel-to-PreferencesManager" style="stroke:#181818;stroke-width:1;"/><polygon fill="#181818" points="1249.95,442.74,1258.8711,438.567,1253.2282,438.9647,1252.8305,433.3218,1249.95,442.74" style="stroke:#181818;stroke-width:1;"/></g><!--link MapViewModel to LocationUtils--><g class="link" data-entity-1="ent0009" data-entity-2="ent0045" data-link-type="dependency" data-source-line="87" id="lnk54"><path codeLine="87" d="M1606.81,140.84 C1621.72,158.92 1644.98,182.73 1671.5,194 C1704.27,207.93 1960.76,193.03 1991.5,211 C2024.6,230.35 2043.0524,265.4291 2053.8724,293.2091" fill="none" id="MapViewModel-to-LocationUtils" style="stroke:#181818;stroke-width:1;stroke-dasharray:7,7;"/><polygon fill="#181818" points="2056.05,298.8,2056.5109,288.9619,2054.2353,294.1409,2049.0564,291.8654,2056.05,298.8" style="stroke:#181818;stroke-width:1;"/></g><!--link MapViewModel to StorageUrlHelper--><g class="link" data-entity-1="ent0009" data-entity-2="ent0046" data-link-type="dependency" data-source-line="88" id="lnk55"><path codeLine="88" d="M1589.17,140.78 C1588.62,179.43 1587.5957,250.7706 1586.9957,292.7606" fill="none" id="MapViewModel-to-StorageUrlHelper" style="stroke:#181818;stroke-width:1;stroke-dasharray:7,7;"/><polygon fill="#181818" points="1586.91,298.76,1591.0382,289.8181,1586.9814,293.7605,1583.039,289.7038,1586.91,298.76" style="stroke:#181818;stroke-width:1;"/></g><!--link RoutesViewModel to RouteRepository--><g class="link" data-entity-1="ent0011" data-entity-2="ent0020" data-link-type="dependency" data-source-line="90" id="lnk56"><path codeLine="90" d="M1233.97,140.75 C1217.3,158.78 1191.61,182.56 1163.5,194 C1137.81,204.45 938.82,197.67 914.5,211 C876.81,231.67 853.6415,271.2649 840.7215,298.8949" fill="none" id="RoutesViewModel-to-RouteRepository" style="stroke:#181818;stroke-width:1;"/><polygon fill="#181818" points="838.18,304.33,845.6157,297.8716,840.2979,299.8007,838.3688,294.483,838.18,304.33" style="stroke:#181818;stroke-width:1;"/></g><!--link RouteDetailsViewModel to RouteRepository--><g class="link" data-entity-1="ent0012" data-entity-2="ent0020" data-link-type="dependency" data-source-line="91" id="lnk57"><path codeLine="91" d="M1025.09,140.78 C1003.86,156.59 974.6,177.53 947.5,194 C933.4,202.57 927.06,200.3 914.5,211 C882.72,238.05 859.0269,273.8295 844.1569,299.2795" fill="none" id="RouteDetailsViewModel-to-RouteRepository" style="stroke:#181818;stroke-width:1;"/><polygon fill="#181818" points="841.13,304.46,849.124,298.7071,843.6524,300.1429,842.2167,294.6713,841.13,304.46" style="stroke:#181818;stroke-width:1;"/></g><!--link ThemeViewModel to PreferencesManager--><g class="link" data-entity-1="ent0014" data-entity-2="ent0036" data-link-type="dependency" data-source-line="93" id="lnk58"><path codeLine="93" d="M1780,140.82 C1796.66,158.89 1822.34,182.69 1850.5,194 C1880.14,205.9 2115.59,187.75 2137.5,211 C2189.63,266.31 2188.55,325.7 2137.5,382 C2082.07,443.12 1524.6878,463.7491 1311.0478,469.4791" fill="none" id="ThemeViewModel-to-PreferencesManager" style="stroke:#181818;stroke-width:1;"/><polygon fill="#181818" points="1305.05,469.64,1314.154,473.3973,1310.0482,469.5059,1313.9395,465.4001,1305.05,469.64" style="stroke:#181818;stroke-width:1;"/></g><!--link LanguageViewModel to PreferencesManager--><g class="link" data-entity-1="ent0015" data-entity-2="ent0036" data-link-type="dependency" data-source-line="94" id="lnk59"><path codeLine="94" d="M1971.79,140.57 C1990.65,158.5 2019.37,182.23 2049.5,194 C2077.25,204.84 2163.56,188 2182.5,211 C2230.81,269.67 2228.14,321.23 2182.5,382 C2130.19,451.66 1533.6593,467.1188 1311.2893,470.4988" fill="none" id="LanguageViewModel-to-PreferencesManager" style="stroke:#181818;stroke-width:1;"/><polygon fill="#181818" points="1305.29,470.59,1314.3498,474.4528,1310.2894,470.514,1314.2282,466.4537,1305.29,470.59" style="stroke:#181818;stroke-width:1;"/></g><!--link FontSizeViewModel to PreferencesManager--><g class="link" data-entity-1="ent0016" data-entity-2="ent0036" data-link-type="dependency" data-source-line="95" id="lnk60"><path codeLine="95" d="M2173.26,140.71 C2192.09,157.87 2215.07,183.03 2225.5,211 C2252.06,282.21 2269.94,320.35 2225.5,382 C2172.01,456.21 1541.0197,468.8436 1311.3697,471.0036" fill="none" id="FontSizeViewModel-to-PreferencesManager" style="stroke:#181818;stroke-width:1;"/><polygon fill="#181818" points="1305.37,471.06,1314.4072,474.9752,1310.3698,471.013,1314.332,466.9755,1305.37,471.06" style="stroke:#181818;stroke-width:1;"/></g><!--link NotificationsViewModel to PreferencesManager--><g class="link" data-entity-1="ent0017" data-entity-2="ent0036" data-link-type="dependency" data-source-line="96" id="lnk61"><path codeLine="96" d="M2347.7,140.68 C2349.46,202.36 2344.36,367.36 2241.5,391 C2063.75,431.86 1520.1343,458.7789 1311.2243,467.8789" fill="none" id="NotificationsViewModel-to-PreferencesManager" style="stroke:#181818;stroke-width:1;"/><polygon fill="#181818" points="1305.23,468.14,1314.3955,471.7445,1310.2253,467.9224,1314.0474,463.7521,1305.23,468.14" style="stroke:#181818;stroke-width:1;"/></g><!--link AuthViewModel to AuthRepository--><g class="link" data-entity-1="ent0013" data-entity-2="ent0022" data-link-type="dependency" data-source-line="98" id="lnk62"><path codeLine="98" d="M1408.14,140.72 C1393.2,158.74 1369.93,182.51 1343.5,194 C1318.58,204.84 1123.9,199.04 1099.5,211 C1057.87,231.41 1028.5787,271.4103 1011.6387,299.1303" fill="none" id="AuthViewModel-to-AuthRepository" style="stroke:#181818;stroke-width:1;"/><polygon fill="#181818" points="1008.51,304.25,1016.6162,298.6563,1011.1173,299.9836,1009.7899,294.4847,1008.51,304.25" style="stroke:#181818;stroke-width:1;"/></g><!--link AuthViewModel to YandexAuthManager--><g class="link" data-entity-1="ent0013" data-entity-2="ent0041" data-link-type="dependency" data-source-line="99" id="lnk63"><path codeLine="99" d="M1406.73,140.8 C1391.5,158.11 1368.52,180.92 1343.5,194 C1328.59,201.8 1320.98,193.43 1306.5,202 C1263.53,227.42 1232.0449,270.7151 1214.0749,299.4051" fill="none" id="AuthViewModel-to-YandexAuthManager" style="stroke:#181818;stroke-width:1;"/><polygon fill="#181818" points="1210.89,304.49,1219.0573,298.9859,1213.5441,300.2526,1212.2775,294.7394,1210.89,304.49" style="stroke:#181818;stroke-width:1;"/></g><!--link RouteRepository to RouteApi--><g class="link" data-entity-1="ent0020" data-entity-2="ent0024" data-link-type="dependency" data-source-line="102" id="lnk64"><path codeLine="102" d="M814.98,352.63 C799.55,379.04 777.4791,416.8007 762.0391,443.2007" fill="none" id="RouteRepository-to-RouteApi" style="stroke:#181818;stroke-width:1;"/><polygon fill="#181818" points="759.01,448.38,767.0065,442.6305,761.5342,444.064,760.1008,438.5917,759.01,448.38" style="stroke:#181818;stroke-width:1;"/></g><!--link RouteRepository to RouteDao--><g class="link" data-entity-1="ent0020" data-entity-2="ent0029" data-link-type="dependency" data-source-line="103" id="lnk65"><path codeLine="103" d="M760.19,341.05 C691.26,352.45 581.7,369.89 486.5,382 C447.06,387.02 437.07,387.16 397.5,391 C378.4,392.85 328.64,390.37 311.5,399 C292.02,408.8 279.1911,422.2819 267.7611,438.0519" fill="none" id="RouteRepository-to-RouteDao" style="stroke:#181818;stroke-width:1;"/><polygon fill="#181818" points="264.24,442.91,272.7605,437.9702,267.1743,438.8616,266.283,433.2754,264.24,442.91" style="stroke:#181818;stroke-width:1;"/></g><!--link RouteRepository to AttractionDao--><g class="link" data-entity-1="ent0020" data-entity-2="ent0030" data-link-type="dependency" data-source-line="104" id="lnk66"><path codeLine="104" d="M760.29,338.01 C694.63,347.68 593.36,366.49 510.5,399 C481.66,410.32 456.6854,424.6073 433.5354,439.6073" fill="none" id="RouteRepository-to-AttractionDao" style="stroke:#181818;stroke-width:1;"/><polygon fill="#181818" points="428.5,442.87,438.2282,441.3329,432.6961,440.1511,433.878,434.6191,428.5,442.87" style="stroke:#181818;stroke-width:1;"/></g><!--link RouteRepository to RouteDataLoader--><g class="link" data-entity-1="ent0020" data-entity-2="ent0037" data-link-type="dependency" data-source-line="105" id="lnk67"><path codeLine="105" d="M862.22,352.63 C900.71,379.04 958.362,418.5862 996.852,444.9862" fill="none" id="RouteRepository-to-RouteDataLoader" style="stroke:#181818;stroke-width:1;"/><polygon fill="#181818" points="1001.8,448.38,996.6406,439.9907,997.6767,445.5519,992.1155,446.588,1001.8,448.38" style="stroke:#181818;stroke-width:1;"/></g><!--link RouteRepository to RouteMapper--><g class="link" data-entity-1="ent0020" data-entity-2="ent0039" data-link-type="dependency" data-source-line="106" id="lnk68"><path codeLine="106" d="M774.96,352.51 C747.32,365.1 713.41,381.63 684.5,399 C662.77,412.05 644.6151,424.9939 626.3051,439.0039" fill="none" id="RouteRepository-to-RouteMapper" style="stroke:#181818;stroke-width:1;stroke-dasharray:7,7;"/><polygon fill="#181818" points="621.54,442.65,631.1184,440.3577,625.5109,439.6116,626.257,434.0042,621.54,442.65" style="stroke:#181818;stroke-width:1;"/></g><!--link AuthRepository to AuthApi--><g class="link" data-entity-1="ent0022" data-entity-2="ent0025" data-link-type="dependency" data-source-line="108" id="lnk69"><path codeLine="108" d="M974.49,352.63 C950.5,379.04 915.5251,417.5395 891.5351,443.9395" fill="none" id="AuthRepository-to-AuthApi" style="stroke:#181818;stroke-width:1;"/><polygon fill="#181818" points="887.5,448.38,896.513,444.4094,890.8626,444.6796,890.5924,439.0292,887.5,448.38" style="stroke:#181818;stroke-width:1;"/></g><!--link AuthRepository to PreferencesManager--><g class="link" data-entity-1="ent0022" data-entity-2="ent0036" data-link-type="dependency" data-source-line="109" id="lnk70"><path codeLine="109" d="M1042.05,352.6 C1066.98,365.46 1097.93,382.23 1124.5,399 C1145.76,412.42 1163.6654,425.2495 1181.9554,439.0895" fill="none" id="AuthRepository-to-PreferencesManager" style="stroke:#181818;stroke-width:1;"/><polygon fill="#181818" points="1186.74,442.71,1181.9768,434.0896,1182.7529,439.6929,1177.1495,440.469,1186.74,442.71" style="stroke:#181818;stroke-width:1;"/></g><!--link YandexAuthManager to PreferencesManager--><g class="link" data-entity-1="ent0041" data-entity-2="ent0036" data-link-type="dependency" data-source-line="111" id="lnk71"><path codeLine="111" d="M1201.74,352.63 C1206.25,377.31 1212.34,410.528 1217.2,437.088" fill="none" id="YandexAuthManager-to-PreferencesManager" style="stroke:#181818;stroke-width:1;"/><polygon fill="#181818" points="1218.28,442.99,1220.5947,433.417,1217.38,438.0717,1212.7254,434.857,1218.28,442.99" style="stroke:#181818;stroke-width:1;"/></g><!--link YandexAuthManager to OkHttpClient--><g class="link" data-entity-1="ent0041" data-entity-2="ent0072" data-link-type="dependency" data-source-line="112" id="lnk73"><path codeLine="112" d="M1155.1,352.58 C1132.23,363.76 1103.11,376.04 1075.5,382 C978.5,402.95 277.84,371.45 182.5,399 C148.36,408.86 118.9382,427.471 95.8282,444.721" fill="none" id="YandexAuthManager-to-OkHttpClient" style="stroke:#181818;stroke-width:1;stroke-dasharray:7,7;"/><polygon fill="#181818" points="91.02,448.31,100.625,446.132,95.0269,445.3192,95.8397,439.721,91.02,448.31" style="stroke:#181818;stroke-width:1;"/></g><!--reverse link AppDatabase to RouteDao--><g class="link" data-entity-1="ent0027" data-entity-2="ent0029" data-link-type="aggregation" data-source-line="115" id="lnk74"><path codeLine="115" d="M302.9391,368.7558 C289.3991,393.3858 275.79,418.18 262.26,442.81" fill="none" id="AppDatabase-backto-RouteDao" style="stroke:#181818;stroke-width:1;"/><polygon fill="none" points="308.72,358.24,302.3243,361.5709,302.9391,368.7558,309.3348,365.4248,308.72,358.24" style="stroke:#181818;stroke-width:1;"/></g><!--reverse link AppDatabase to AttractionDao--><g class="link" data-entity-1="ent0027" data-entity-2="ent0030" data-link-type="aggregation" data-source-line="116" id="lnk75"><path codeLine="116" d="M342.1175,369.2085 C353.0475,393.8385 363.85,418.18 374.77,442.81" fill="none" id="AppDatabase-backto-AttractionDao" style="stroke:#181818;stroke-width:1;"/><polygon fill="none" points="337.25,358.24,336.0276,365.3467,342.1175,369.2085,343.3399,362.1018,337.25,358.24" style="stroke:#181818;stroke-width:1;"/></g><!--link RouteDao to RouteEntity--><g class="link" data-entity-1="ent0029" data-entity-2="ent0032" data-link-type="dependency" data-source-line="118" id="lnk76"><path codeLine="118" d="M260.6,502.1 C277.22,535.8 302.0167,586.0785 318.6667,619.8485" fill="none" id="RouteDao-to-RouteEntity" style="stroke:#181818;stroke-width:1;"/><polygon fill="#181818" points="321.32,625.23,320.9277,615.389,319.1089,620.7455,313.7524,618.9267,321.32,625.23" style="stroke:#181818;stroke-width:1;"/></g><!--link AttractionDao to AttractionEntity--><g class="link" data-entity-1="ent0030" data-entity-2="ent0033" data-link-type="dependency" data-source-line="119" id="lnk77"><path codeLine="119" d="M399.23,502.22 C417.53,551.67 447.35,655.05 412.5,732.5 C407.41,743.81 403.3731,749.7768 394.1631,758.1768" fill="none" id="AttractionDao-to-AttractionEntity" style="stroke:#181818;stroke-width:1;"/><polygon fill="#181818" points="389.73,762.22,399.0751,759.1106,393.4243,758.8507,393.6842,753.1998,389.73,762.22" style="stroke:#181818;stroke-width:1;"/></g><!--link RouteMapper to RouteEntity--><g class="link" data-entity-1="ent0039" data-entity-2="ent0032" data-link-type="dependency" data-source-line="122" id="lnk78"><path codeLine="122" d="M545.89,502.1 C499.21,535.8 426.9745,587.9476 380.2045,621.7176" fill="none" id="RouteMapper-to-RouteEntity" style="stroke:#181818;stroke-width:1;stroke-dasharray:7,7;"/><polygon fill="#181818" points="375.34,625.23,384.9783,623.2044,379.3937,622.303,380.2951,616.7184,375.34,625.23" style="stroke:#181818;stroke-width:1;"/></g><!--link RouteMapper to Route--><g class="link" data-entity-1="ent0039" data-entity-2="ent0003" data-link-type="dependency" data-source-line="123" id="lnk79"><path codeLine="123" d="M629.02,502.22 C645.68,511.66 665.29,521.01 684.5,526 C727.79,537.26 1452.01,518.6 1489.5,543 C1519.47,562.5 1531.2942,598.3324 1536.7042,624.7024" fill="none" id="RouteMapper-to-Route" style="stroke:#181818;stroke-width:1;stroke-dasharray:7,7;"/><polygon fill="#181818" points="1537.91,630.58,1540.0196,620.9597,1536.9051,625.682,1532.1829,622.5675,1537.91,630.58" style="stroke:#181818;stroke-width:1;"/></g><!--link RouteMapper to AttractionEntity--><g class="link" data-entity-1="ent0039" data-entity-2="ent0033" data-link-type="dependency" data-source-line="124" id="lnk80"><path codeLine="124" d="M572.25,502.32 C548.1,552.84 493.11,658.96 425.5,732.5 C415.45,743.43 407.9409,750.1316 396.0209,758.9116" fill="none" id="RouteMapper-to-AttractionEntity" style="stroke:#181818;stroke-width:1;stroke-dasharray:7,7;"/><polygon fill="#181818" points="391.19,762.47,400.8087,760.3531,395.2158,759.5047,396.0642,753.9118,391.19,762.47" style="stroke:#181818;stroke-width:1;"/></g><!--link RouteMapper to Attraction--><g class="link" data-entity-1="ent0039" data-entity-2="ent0005" data-link-type="dependency" data-source-line="125" id="lnk81"><path codeLine="125" d="M628.51,502.05 C645.26,511.6 665.08,521.06 684.5,526 C708.98,532.22 1575.78,525 1593.5,543 C1652.63,603.08 1639.43,657.22 1601.5,732.5 C1594.21,746.98 1586.3863,755.3592 1573.2163,764.4592" fill="none" id="RouteMapper-to-Attraction" style="stroke:#181818;stroke-width:1;stroke-dasharray:7,7;"/><polygon fill="#181818" points="1568.28,767.87,1577.9582,766.0447,1572.3935,765.0277,1573.4105,759.463,1568.28,767.87" style="stroke:#181818;stroke-width:1;"/></g><!--link YandexPushService to NotificationManager--><g class="link" data-entity-1="ent0049" data-entity-2="ent0082" data-link-type="dependency" data-source-line="128" id="lnk83"><path codeLine="128" d="M2594.5,140.78 C2594.5,181.25 2594.5,258.12 2594.5,298.44" fill="none" id="YandexPushService-to-NotificationManager" style="stroke:#181818;stroke-width:1;stroke-dasharray:7,7;"/><polygon fill="#181818" points="2594.5,304.44,2598.5,295.44,2594.5,299.44,2590.5,295.44,2594.5,304.44" style="stroke:#181818;stroke-width:1;"/></g><?plantuml-src VLR1Rjim3BtxAmHVrcv8kbs3Ba1MhsYmPWsIPS2EgiqqGXtBa9HktR1_7sKvjcJAww6mo4UAVAAUefz5LNF5Zwpc-JD_WgrvBO4fo0sldaf8T0V8IwxrmXWb7ay6bhcijk8tiFT9yePzj7yiaqSkAhT8sdmiBHhhz2WBA5Fs9s4k4zj8JDEjR6AU6o6hphJJe19SDK2MVaYPd4nO-ZRrm6p6UBVGoT--cDsINNmNy7DbzxqS5dKIqnTqag9MlEw2mahrY3q3mqNfUVkMJkP0WxuTu0ZKV8zqdx0qwhcLbR5CKyzNQSHUvBpfFL80DhCJMyEHlUlhWXi-d_iCPMYPiGtKKWiZrIivEFHFLUScPzT71YrxPhBPOhsCxi9huTABoe3QynpS5ejQ14QRtzf8udkPyv9TRAGyidSCIm6ZyQDMi0S5LGxwChgn_VV8DVZDBUewQyt8cqrvNZh-uXdmGqPxoBZ4DDdY0QE3NhgvzH7Z-Q4omj1J-DoOCTvzD9iChrGCumVRktLDxbRhdB7RBqnPzBAWvPMMUB-eTK_vYbS8LBOtX6vn9C0hhoN7y7l92xpf9FMHrpKeql2gCMFIan6bwuQ4SfmJF_07hmhuPQUdhIbG2ip3hjWMr8l0Snag1NhzL7RIB3ldHFte5qAkI_xgsSvOkuCEAZuZB2cOPgVAEoY7RPr1DtYzKOwD7crQkzffo-kJFhID-Irle7IgCRCwEPatjwZjt9T0Da7VyB8Jm90I0l2v8KuwC25cEfs7H5BtaCKa6KXsj8-eV4UHIIZQOsKJ3Hy34aaV0yOLVWoT12zEotmWo1H0RqPiIBn7mYPTBw-oJrTESztG31ZhMRHgFUf4uOiw0sdyNtWd7aECdGfFBHmrmrtQnoJYYf5Bc1f3Kg2j9drulZEclYa52daQPzc-NevF_msoltewkeQEaAgaUt4wafoA9-5h4vBSGhgIB6UYUlAFjXNTZjOs9EeZLhBJEA0lui4SqEjA85hc6FLlHqjr-Wy0?></g></svg>